<svg xmlns="http://www.w3.org/2000/svg" viewBox="0 0 662.68 448.54"><defs><style>.cls-1{fill:#ebebeb;}.cls-2{fill:#e0e0e0;}.cls-3{fill:#e8505b;}.cls-4{opacity:0.7;}.cls-5{fill:#fff;}.cls-6{fill:#263238;}.cls-7{fill:#f4d3bd;}.cls-8{fill:#eaae94;}.cls-9{fill:#455a64;}.cls-10{opacity:0.6;}.cls-11{opacity:0.3;}.cls-12{fill:#fafafa;}.cls-13{fill:#b78876;}.cls-14{fill:#aa6550;}</style></defs><title>NotFoundArabic</title><g id="Background_Complete" data-name="Background Complete"><path class="cls-1" d="M71.63,413.82s-2.9,6.81,13,11.56,24.77,6,24.77,6,3.4,1.4,1.79,3.86-6.73,6.34-5.06,9.71,6.06,4,12,2.15,19-5.29,20.2-5.6,3,.06,2.2,1.91-9.62,13.2-4,17.05,21.3-3.89,23-4.7,2.57-.6,3.18.18-2.71,4.32-5.08,7.65-4.53,7.62-1.09,9.57,16,.48,33.95-15l7.86-7.71-2.58-10.75c-6.94-22.68-16.76-30.61-20.71-30.8s-4.4,4.58-4.18,8.66,1.13,8.85.2,9.19-1.75.06-2.78-1.55S158.17,408.72,151.34,409s-5.46,14.55-5.74,16.55-2.06,1.31-2.88.43-10.06-10.84-14.09-15.52-7.95-6.61-11.28-4.58-.95,8-.9,10.92-3.58,2.3-3.58,2.3-8.19-3.67-24.15-8.13-17.13,3-17.13,3" transform="translate(-47.49 -64.9)"/><path class="cls-2" d="M200.61,451.86c-11.71-3.33-32.42-9.58-50.23-14.86s-33.92-10-45.61-13.42l-13.85-4-3.77-1.09-1-.29-.33-.11.33.08,1,.25,3.78,1c3.29.89,8,2.22,13.88,3.89,11.71,3.32,27.85,8,45.65,13.32s38.51,11.57,50.2,14.95" transform="translate(-47.49 -64.9)"/><path class="cls-2" d="M113.48,439.81a4.06,4.06,0,0,1,.69-.4c.45-.25,1.11-.58,1.93-1,1.64-.8,3.94-1.86,6.49-3l6.55-2.84,2-.88a3.5,3.5,0,0,1,.74-.29,3.31,3.31,0,0,1-.68.41c-.45.25-1.11.58-1.94,1-1.65.79-4,1.81-6.51,2.93l-6.53,2.89-2,.89A2.91,2.91,0,0,1,113.48,439.81Z" transform="translate(-47.49 -64.9)"/><path class="cls-2" d="M131.87,430.4c-.08,0-2.47-4.6-5.33-10.36s-5.1-10.47-5-10.51,2.47,4.59,5.33,10.36S132,430.36,131.87,430.4Z" transform="translate(-47.49 -64.9)"/><path class="cls-2" d="M158.85,439.74a4.8,4.8,0,0,1-.18-.79c-.1-.59-.24-1.32-.39-2.18-.33-1.84-.8-4.37-1.42-7.14s-1.25-5.28-1.73-7.08c-.23-.85-.42-1.56-.57-2.14a3.89,3.89,0,0,1-.17-.79,3.58,3.58,0,0,1,.3.76c.17.49.4,1.21.67,2.1.54,1.79,1.22,4.29,1.84,7.07s1.05,5.33,1.32,7.18c.13.93.23,1.68.28,2.2A2.93,2.93,0,0,1,158.85,439.74Z" transform="translate(-47.49 -64.9)"/><path class="cls-2" d="M144.09,451.91a4,4,0,0,1,.53-.53l1.52-1.36c1.3-1.14,3.1-2.69,5.11-4.39s3.84-3.23,5.18-4.32L158,440a3,3,0,0,1,.62-.43,3.46,3.46,0,0,1-.53.53l-1.52,1.36c-1.3,1.14-3.11,2.7-5.12,4.4s-3.83,3.22-5.17,4.31l-1.6,1.28A2.65,2.65,0,0,1,144.09,451.91Z" transform="translate(-47.49 -64.9)"/><path class="cls-2" d="M166.86,463.18a5.19,5.19,0,0,1,.68-.67l2-1.76c1.65-1.46,3.95-3.47,6.5-5.68s4.88-4.18,6.58-5.6l2-1.67a6.09,6.09,0,0,1,.77-.58,4.18,4.18,0,0,1-.68.68l-1.95,1.75c-1.65,1.47-3.95,3.48-6.5,5.68s-4.88,4.19-6.57,5.61l-2,1.67A5,5,0,0,1,166.86,463.18Z" transform="translate(-47.49 -64.9)"/><path class="cls-2" d="M184.8,447.48a6.62,6.62,0,0,1-.25-1c-.16-.71-.35-1.63-.6-2.74-.5-2.31-1.21-5.5-2.09-9s-1.75-6.65-2.4-8.92c-.31-1.1-.57-2-.76-2.7a6.62,6.62,0,0,1-.25-1,6.19,6.19,0,0,1,.37,1c.22.62.52,1.53.88,2.67.7,2.26,1.62,5.4,2.5,8.91s1.55,6.71,2,9c.22,1.17.39,2.11.49,2.76A5.15,5.15,0,0,1,184.8,447.48Z" transform="translate(-47.49 -64.9)"/><path class="cls-1" d="M523,238.39c-14-9.39-17.4-27.22-17.14-43.3,0-2.69-.3-5.51.93-7.89s4.19-4,6.61-2.95c2,.9,2.92,3.21,4.07,5.1a15.56,15.56,0,0,0,6.4,5.9c1.72.86,3.84,1.36,5.51.4,2.3-1.31,2.51-4.52,2.45-7.18l-.36-14.92a24.83,24.83,0,0,1,.67-7.94c.78-2.55,2.57-4.94,5.1-5.69s5.69.65,6.27,3.25a26.18,26.18,0,0,1,.14,3.32,2.81,2.81,0,0,0,1.69,2.62c1.07.29,2.12-.49,2.91-1.28,2.7-2.74,4.51-6.25,6.2-9.73s3.31-7,5.76-10,5.86-5.37,9.68-5.66,7.93,2,9,5.74-1.1,7.6-3.43,10.69a59.69,59.69,0,0,1-12.19,12,4.92,4.92,0,0,0-2,2.27c-.55,1.79,1.17,3.52,2.94,4.08,2,.63,4.15.38,6.24.59s4.35,1.08,5.18,3c1.14,2.71-1.09,5.61-3.31,7.52a50.81,50.81,0,0,1-14.94,9c-1.95.76-4,1.42-5.57,2.83s-2.47,3.82-1.48,5.69,3.46,2.42,5.51,2,3.87-1.57,5.81-2.34c3.65-1.45,8.39-1.28,10.79,1.85a8.43,8.43,0,0,1,1,7.45,19.38,19.38,0,0,1-3.93,6.67,51.28,51.28,0,0,1-21.63,15.78c-8.46,3.1-16.33,4-24.84,1.1" transform="translate(-47.49 -64.9)"/><path class="cls-2" d="M527,228.24a240.31,240.31,0,0,1,9-25.92l2.72-6.67c.89-2.18,1.78-4.35,2.78-6.42a118.5,118.5,0,0,1,6.44-11.55c2.22-3.58,4.46-6.89,6.58-10s4.16-5.91,6.13-8.42a93.28,93.28,0,0,1,10.14-11.1c1.29-1.22,2.33-2.12,3-2.73l.81-.68a1.39,1.39,0,0,1,.29-.22s-.08.09-.26.26l-.78.72c-.69.63-1.7,1.56-3,2.79a99.93,99.93,0,0,0-10,11.18c-1.94,2.51-4,5.35-6.07,8.43s-4.32,6.41-6.53,10a121.37,121.37,0,0,0-6.38,11.52c-1,2.06-1.87,4.21-2.77,6.4s-1.8,4.42-2.72,6.67a246.33,246.33,0,0,0-9.05,25.85" transform="translate(-47.49 -64.9)"/><path class="cls-2" d="M541.63,189.21a5.93,5.93,0,0,1-.28-1.14c-.15-.73-.34-1.8-.55-3.13-.42-2.65-.88-6.33-1.38-10.39s-1-7.72-1.46-10.36c-.23-1.32-.43-2.38-.57-3.12a5.56,5.56,0,0,1-.17-1.15,5,5,0,0,1,.35,1.11c.21.72.45,1.78.73,3.1.55,2.63,1.12,6.3,1.61,10.36s.91,7.63,1.24,10.4c.15,1.25.29,2.31.39,3.15A4.88,4.88,0,0,1,541.63,189.21Z" transform="translate(-47.49 -64.9)"/><path class="cls-2" d="M575.83,182.19a7.77,7.77,0,0,1-1.36.19c-.88.09-2.16.22-3.72.43-3.14.39-7.45,1.09-12.18,2.07s-9,2.06-12,2.92c-1.53.43-2.75.8-3.6,1.06a8.13,8.13,0,0,1-1.34.35,7.28,7.28,0,0,1,1.28-.54c.83-.31,2-.74,3.56-1.2,3-1,7.26-2.09,12-3.08a121.94,121.94,0,0,1,12.24-1.93c1.58-.17,2.86-.24,3.74-.28A6.39,6.39,0,0,1,575.83,182.19Z" transform="translate(-47.49 -64.9)"/><path class="cls-2" d="M527.36,227.6a2.63,2.63,0,0,1-.24-.42l-.61-1.23c-.52-1.07-1.24-2.64-2.1-4.59-1.72-3.9-3.94-9.36-6.3-15.43s-4.52-11.54-6.16-15.47c-.8-1.91-1.47-3.48-2-4.65l-.52-1.27a2,2,0,0,1-.16-.46,2,2,0,0,1,.25.42c.16.33.36.74.61,1.23.52,1.07,1.24,2.64,2.1,4.59,1.72,3.9,3.94,9.37,6.3,15.43s4.52,11.54,6.16,15.47c.8,1.91,1.46,3.49,2,4.65l.52,1.27C527.33,227.44,527.38,227.59,527.36,227.6Z" transform="translate(-47.49 -64.9)"/><path class="cls-2" d="M572.7,212.1a2.49,2.49,0,0,1-.45.19l-1.32.47-4.85,1.67c-4.1,1.41-9.74,3.42-16,5.65s-11.89,4.2-16,5.52c-2.06.67-3.74,1.19-4.9,1.52l-1.35.38a1.69,1.69,0,0,1-.48.1,2.05,2.05,0,0,1,.45-.2l1.32-.46,4.85-1.67c4.1-1.41,9.74-3.42,16-5.66s11.89-4.19,16-5.52c2.06-.66,3.74-1.18,4.9-1.51l1.35-.38A1.69,1.69,0,0,1,572.7,212.1Z" transform="translate(-47.49 -64.9)"/><path class="cls-1" d="M675.91,305.49a10.16,10.16,0,0,1-3.73,7,18.09,18.09,0,0,1-7.31,3.49c-5.11,1.28-11.11.34-16.15-1.19,2.06-5.48,8-8.78,11.1-10.27,4.92-2.35,15.25-3.61,16.09,1" transform="translate(-47.49 -64.9)"/><path class="cls-1" d="M642.43,322.63a8.63,8.63,0,0,1,8.68-.27,11.5,11.5,0,0,1,5.46,7,4.84,4.84,0,0,1-.26,4.07,3.7,3.7,0,0,1-3.5,1.37,7.45,7.45,0,0,1-3.53-1.64c-3.59-2.74-6.55-6-6.85-10.54" transform="translate(-47.49 -64.9)"/><path class="cls-2" d="M629.26,322a17.16,17.16,0,0,1,3.42-.65,16.61,16.61,0,0,1,3.81,0,36.82,36.82,0,0,1,4.59.71,17.48,17.48,0,0,1,7.52,3.79,12.29,12.29,0,0,1,1.71,1.91,2.82,2.82,0,0,1,.47.82c-.09.06-.82-1.06-2.45-2.41a18.58,18.58,0,0,0-7.39-3.53,43.66,43.66,0,0,0-4.51-.75,17.64,17.64,0,0,0-3.71-.11A26.59,26.59,0,0,1,629.26,322Z" transform="translate(-47.49 -64.9)"/><path class="cls-2" d="M668.14,307.14a9.48,9.48,0,0,1-1.59.78c-1,.47-2.53,1.12-4.4,1.91-3.72,1.59-8.9,3.72-14.67,5.93s-11.06,4.07-14.91,5.33c-1.93.63-3.49,1.12-4.58,1.44a9.8,9.8,0,0,1-1.71.44,10.23,10.23,0,0,1,1.64-.66l4.51-1.62c3.81-1.36,9.07-3.27,14.84-5.48L662,309.45l4.47-1.74A11.31,11.31,0,0,1,668.14,307.14Z" transform="translate(-47.49 -64.9)"/><path class="cls-1" d="M638.21,317.1A20.23,20.23,0,0,0,646,300.32c-.08-1.63-.59-3.54-2.13-4.09s-3.15.64-4.2,1.88a17.3,17.3,0,0,0-1.88,19.11" transform="translate(-47.49 -64.9)"/><path class="cls-2" d="M642.38,303.46a2.69,2.69,0,0,1,0,.93c0,.59-.1,1.45-.23,2.5a23,23,0,0,1-2.47,8,14.47,14.47,0,0,1-2.89,3.61,14.09,14.09,0,0,1-5.52,3,2.93,2.93,0,0,1-.91.18c0-.11,1.24-.46,3.09-1.44a14,14,0,0,0,5.71-5.61,25.61,25.61,0,0,0,2.57-7.73A31.19,31.19,0,0,1,642.38,303.46Z" transform="translate(-47.49 -64.9)"/><path class="cls-1" d="M108.27,133.61a12,12,0,0,1,8.85,3.18,21.18,21.18,0,0,1,5.32,8c2.37,5.77,2.3,12.94,1.36,19.11-6.76-1.48-11.64-7.86-13.91-11.25-3.59-5.36-6.82-17.23-1.62-19" transform="translate(-47.49 -64.9)"/><path class="cls-1" d="M134,169.89a10.25,10.25,0,0,1-1.79-10.12,13.57,13.57,0,0,1,7.28-7.58c1.52-.69,3.32-1.13,4.81-.39a4.36,4.36,0,0,1,2.2,3.85,8.86,8.86,0,0,1-1.32,4.42c-2.59,4.67-6,8.7-11.18,9.82" transform="translate(-47.49 -64.9)"/><path class="cls-2" d="M135.54,185.42a20.35,20.35,0,0,1-1.34-3.9,19.1,19.1,0,0,1-.66-4.45,42.44,42.44,0,0,1,.05-5.5,20.49,20.49,0,0,1,3.15-9.45,15.38,15.38,0,0,1,1.94-2.33c.54-.48.85-.72.89-.69s-1.11,1.14-2.41,3.29a21.9,21.9,0,0,0-2.88,9.25,49.56,49.56,0,0,0-.09,5.4,20.92,20.92,0,0,0,.49,4.37A28.16,28.16,0,0,1,135.54,185.42Z" transform="translate(-47.49 -64.9)"/><path class="cls-2" d="M111.53,142.43a12.46,12.46,0,0,1,1.18,1.72c.73,1.13,1.75,2.78,3,4.82,2.49,4.1,5.87,9.8,9.44,16.18s6.65,12.26,8.78,16.55c1.07,2.15,1.91,3.89,2.47,5.11a10.44,10.44,0,0,1,.8,1.93,13.53,13.53,0,0,1-1.05-1.81c-.68-1.29-1.58-3-2.66-5-2.24-4.24-5.38-10.06-8.95-16.44s-6.82-12-9.25-16.26l-2.8-4.94A12.26,12.26,0,0,1,111.53,142.43Z" transform="translate(-47.49 -64.9)"/><path class="cls-1" d="M128.29,175.77a24,24,0,0,0-21-6.25c-1.9.37-4,1.3-4.42,3.19s1.27,3.58,2.91,4.6a20.47,20.47,0,0,0,22.69-1.06" transform="translate(-47.49 -64.9)"/><path class="cls-2" d="M111.61,173.21a3.19,3.19,0,0,1,1.08-.18c.7-.08,1.72-.13,3-.15a27,27,0,0,1,9.73,1.53,17.08,17.08,0,0,1,4.72,2.77,16.34,16.34,0,0,1,4.42,6,3.51,3.51,0,0,1,.37,1c-.13.06-.75-1.37-2.21-3.37a17.54,17.54,0,0,0-3-3.12,16.9,16.9,0,0,0-4.56-2.61,30.41,30.41,0,0,0-9.49-1.7A33.69,33.69,0,0,1,111.61,173.21Z" transform="translate(-47.49 -64.9)"/><path class="cls-1" d="M345.51,501.84a10.7,10.7,0,0,1,.05-8.38,18.76,18.76,0,0,1,5.12-6.84c4.14-3.71,10.19-5.78,15.66-6.82.76,6.12-3.15,12.12-5.33,15-3.44,4.61-12.46,10.85-15.5,7" transform="translate(-47.49 -64.9)"/><path class="cls-1" d="M368.37,469.39a9.13,9.13,0,0,1-8,4.52,12.15,12.15,0,0,1-8.54-3.87,5.1,5.1,0,0,1-1.75-3.93,3.9,3.9,0,0,1,2.59-3,8,8,0,0,1,4.1-.2c4.7.8,9.09,2.43,11.58,6.48" transform="translate(-47.49 -64.9)"/><path class="cls-2" d="M381,463.52a20.6,20.6,0,0,1-6.43,4.16,36.21,36.21,0,0,1-4.63,1.6,18.14,18.14,0,0,1-8.89.15,13.08,13.08,0,0,1-2.54-.94,3,3,0,0,1-.83-.53c0-.11,1.28.58,3.47,1.05a19.59,19.59,0,0,0,8.64-.34,42.92,42.92,0,0,0,4.57-1.52,19,19,0,0,0,3.52-1.71A27.33,27.33,0,0,1,381,463.52Z" transform="translate(-47.49 -64.9)"/><path class="cls-2" d="M352,496.48a10.75,10.75,0,0,1,1.1-1.5c.73-1,1.82-2.29,3.17-4,2.7-3.31,6.49-7.84,10.8-12.74s8.33-9.23,11.31-12.3c1.48-1.53,2.7-2.76,3.56-3.59a10.14,10.14,0,0,1,1.38-1.25,11.25,11.25,0,0,1-1.2,1.42l-3.42,3.72c-2.9,3.15-6.86,7.51-11.17,12.41l-10.92,12.61-3.33,3.82A9.31,9.31,0,0,1,352,496.48Z" transform="translate(-47.49 -64.9)"/><path class="cls-1" d="M375,472.48a21.39,21.39,0,0,0,1,19.5c.87,1.48,2.29,3,4,2.77s2.63-2.14,3-3.82a18.26,18.26,0,0,0-7.63-18.76" transform="translate(-47.49 -64.9)"/><path class="cls-2" d="M377.83,487.27s-.21-.28-.48-.85-.61-1.41-1-2.46a24.28,24.28,0,0,1-1.6-8.64,15.22,15.22,0,0,1,.92-4.79,14.88,14.88,0,0,1,3.7-5.49c.46-.43.73-.65.76-.61s-.93,1-2.18,2.86a14.8,14.8,0,0,0-2.58,8,27.2,27.2,0,0,0,1.4,8.48A32.1,32.1,0,0,1,377.83,487.27Z" transform="translate(-47.49 -64.9)"/></g><g id="Stains"><path class="cls-3" d="M48.54,278.42c-4.21-24.29,4.24-51.14,23.63-66.36s49.53-16.35,68.32-.38c13.21,11.23,19.39,28.37,27.26,43.82s19.79,31.09,36.92,33.75c14.78,2.3,29.64-5.78,44.47-3.84,14.48,1.9,26.6,13.74,30.77,27.73s1,29.53-6.42,42.07-19,22.31-31.55,29.72c-40.49,23.81-94.22,23-134-1.94s-63.84-73-60-119.83" transform="translate(-47.49 -64.9)"/><g class="cls-4"><path class="cls-5" d="M48.54,278.42c-4.21-24.29,4.24-51.14,23.63-66.36s49.53-16.35,68.32-.38c13.21,11.23,19.39,28.37,27.26,43.82s19.79,31.09,36.92,33.75c14.78,2.3,29.64-5.78,44.47-3.84,14.48,1.9,26.6,13.74,30.77,27.73s1,29.53-6.42,42.07-19,22.31-31.55,29.72c-40.49,23.81-94.22,23-134-1.94s-63.84-73-60-119.83" transform="translate(-47.49 -64.9)"/></g><path class="cls-3" d="M283.11,495.93c13.15-9,19.33-28.77,11.11-42.39h0c-8.32-12.41-21.24-22.3-36-24.38s-31.15,4.89-37.73,18.3c-4.15,8.44-4.16,18.64-.72,27.4a43.51,43.51,0,0,0,18.19,20.9C251.55,504,270,504.9,283.11,495.93Z" transform="translate(-47.49 -64.9)"/><g class="cls-4"><path class="cls-5" d="M283.11,495.93c13.15-9,19.33-28.77,11.11-42.39h0c-8.32-12.41-21.24-22.3-36-24.38s-31.15,4.89-37.73,18.3c-4.15,8.44-4.16,18.64-.72,27.4a43.51,43.51,0,0,0,18.19,20.9C251.55,504,270,504.9,283.11,495.93Z" transform="translate(-47.49 -64.9)"/></g><path class="cls-3" d="M710.11,413.09c-.81-21-11.24-41.92-28.7-53.7S639.64,346,621.65,357c-11.21,6.82-19.34,17.69-26.11,28.92-3.71,6.16-7.58,12.95-14.25,15.65-8.67,3.5-18.2-1.28-27.37-3.11a43.06,43.06,0,0,0-50,30.94c-8,33.19,15.27,56.89,40.15,71.27,27.81,16.07,63,16.06,93.24,5.33,19.85-7,38.35-18.6,51.87-34.75S710.93,434.14,710.11,413.09Z" transform="translate(-47.49 -64.9)"/><g class="cls-4"><path class="cls-5" d="M710.11,413.09c-.81-21-11.24-41.92-28.7-53.7S639.64,346,621.65,357c-11.21,6.82-19.34,17.69-26.11,28.92-3.71,6.16-7.58,12.95-14.25,15.65-8.67,3.5-18.2-1.28-27.37-3.11a43.06,43.06,0,0,0-50,30.94c-8,33.19,15.27,56.89,40.15,71.27,27.81,16.07,63,16.06,93.24,5.33,19.85-7,38.35-18.6,51.87-34.75S710.93,434.14,710.11,413.09Z" transform="translate(-47.49 -64.9)"/></g><path class="cls-3" d="M662.31,233.28c-2.57-16.8-18.77-31.89-35.68-30.27h0c-15.79,2.28-31.28,10.15-40.12,23.44s-9.67,32.24.2,44.78c6.21,7.89,16,12.61,26,13.34a46.47,46.47,0,0,0,28.53-7.85C655.49,267.4,664.88,250.08,662.31,233.28Z" transform="translate(-47.49 -64.9)"/><g class="cls-4"><path class="cls-5" d="M662.31,233.28c-2.57-16.8-18.77-31.89-35.68-30.27h0c-15.79,2.28-31.28,10.15-40.12,23.44s-9.67,32.24.2,44.78c6.21,7.89,16,12.61,26,13.34a46.47,46.47,0,0,0,28.53-7.85C655.49,267.4,664.88,250.08,662.31,233.28Z" transform="translate(-47.49 -64.9)"/></g></g><g id="Character_2" data-name="Character 2"><path class="cls-6" d="M466.52,237.5c2.18-.27,3.91-1.87,5.89-2.8a10.19,10.19,0,0,1,9.42.46c2.81,1.68,4.81,3.7,5,7l-3.67,4" transform="translate(-47.49 -64.9)"/><path class="cls-7" d="M489.76,257.93l-5.9,35.42c-1,6-3.7,14.66-13.15,12.64h0c-8.07-2.37-8.86-10.55-7.92-16.17.45-2.66.82-4.89.84-5.16,0,0-8.87-2.35-8-11.38.41-4.37,2-13.29,3.48-21.35a16.89,16.89,0,0,1,18.37-13.68l.87.09C487.64,239.87,491.55,248.65,489.76,257.93Z" transform="translate(-47.49 -64.9)"/><path class="cls-8" d="M463.63,284.52a21,21,0,0,0,12.11-2.1s-3.46,6.2-12.37,4.44Z" transform="translate(-47.49 -64.9)"/><path class="cls-6" d="M459.89,257.33c.18.17,1.4-.3,3.07-.1s2.84.93,3,.81-.08-.33-.59-.67a5.77,5.77,0,0,0-2.41-.82,5.29,5.29,0,0,0-2.46.26C460,257,459.8,257.26,459.89,257.33Z" transform="translate(-47.49 -64.9)"/><path class="cls-6" d="M473.59,258.87c.18.16,1.4-.3,3.06-.1s2.83.92,3,.8-.08-.32-.59-.65a5.78,5.78,0,0,0-2.4-.81,5.26,5.26,0,0,0-2.45.25C473.69,258.56,473.5,258.79,473.59,258.87Z" transform="translate(-47.49 -64.9)"/><path class="cls-6" d="M473.28,261.08a1,1,0,0,0,.85,1.11,1,1,0,0,0,1.12-.79,1,1,0,0,0-.85-1.11A1,1,0,0,0,473.28,261.08Z" transform="translate(-47.49 -64.9)"/><path class="cls-6" d="M460.33,259.67a1,1,0,0,0,.85,1.1,1,1,0,0,0,1.12-.79,1,1,0,0,0-.85-1.1A1,1,0,0,0,460.33,259.67Z" transform="translate(-47.49 -64.9)"/><path class="cls-6" d="M468,268a9.35,9.35,0,0,0-2.21-.64c-.35-.07-.68-.18-.71-.43a1.75,1.75,0,0,1,.35-1l1.33-2.59a48.56,48.56,0,0,0,3.09-6.8,45.84,45.84,0,0,0-3.63,6.54l-1.29,2.6a2,2,0,0,0-.33,1.38.89.89,0,0,0,.53.57,2.13,2.13,0,0,0,.59.15A9.06,9.06,0,0,0,468,268Z" transform="translate(-47.49 -64.9)"/><path class="cls-6" d="M475.26,252.81c.09.36,1.32.33,2.74.66s2.53.85,2.76.56-.07-.48-.5-.86a4.63,4.63,0,0,0-2-1,4.56,4.56,0,0,0-2.2,0C475.52,252.4,475.23,252.65,475.26,252.81Z" transform="translate(-47.49 -64.9)"/><path class="cls-6" d="M460.61,253c.11.3,1.33.21,2.74.41s2.56.6,2.76.35-.1-.41-.56-.71a5,5,0,0,0-2-.72,5.36,5.36,0,0,0-2.16.14C460.84,252.68,460.57,252.9,460.61,253Z" transform="translate(-47.49 -64.9)"/><path class="cls-7" d="M488.32,264.53c.16,0,6.39-1.18,5.55,5s-6.84,4-6.83,3.86S488.32,264.53,488.32,264.53Z" transform="translate(-47.49 -64.9)"/><path class="cls-8" d="M489.24,271.28s.09.09.26.19a1,1,0,0,0,.8.13,2.67,2.67,0,0,0,1.55-2.21,3.42,3.42,0,0,0-.09-1.57,1.21,1.21,0,0,0-.69-.93.55.55,0,0,0-.67.2c-.11.16-.08.29-.12.3s-.12-.12,0-.37a.67.67,0,0,1,.29-.35.86.86,0,0,1,.62-.08,1.51,1.51,0,0,1,1,1.11,3.67,3.67,0,0,1,.14,1.76,2.79,2.79,0,0,1-1.93,2.44,1.12,1.12,0,0,1-1-.29C489.23,271.43,489.21,271.29,489.24,271.28Z" transform="translate(-47.49 -64.9)"/><path class="cls-6" d="M457.35,249.86a13.11,13.11,0,0,0,11.85-1.39c2.39-1.63,4.36-4.13,7.2-4.69a7.35,7.35,0,0,1,5.52,1.35,14.32,14.32,0,0,1,3.84,4.35c-2.22,4.41-1.59,9.64-.9,14.53a2.48,2.48,0,0,0,.57,1.5,2,2,0,0,0,2.51-.29,7.65,7.65,0,0,0,2.1-3.84,25.54,25.54,0,0,0,1-10,17.35,17.35,0,0,0-3.83-9.22,16.46,16.46,0,0,0-11-5.54,20.23,20.23,0,0,0-12.09,2.95,11.85,11.85,0,0,0-4.24,4" transform="translate(-47.49 -64.9)"/><path class="cls-6" d="M457.89,258.38c.58-2.48.85-5.61,1.43-8.09a15,15,0,0,0,11.14-2.77c1.64-1.27,3.06-3,5.05-3.55,2.57-.75,5.23.61,7.56,1.92l-.09-.12a11.25,11.25,0,0,1,3,3.11,35.2,35.2,0,0,0-1.13,15,2.53,2.53,0,0,0,1.17,1.85c1.27.78,2.22-.1,3.18-.69.7-.44,1.7-.71,2.3-.14a35,35,0,0,0,4.06-10,2.51,2.51,0,0,0,4.44,2.22,5.32,5.32,0,0,1-1.22-2.51,3.26,3.26,0,0,0,4.65-.38l-1.95-1.94,2.78.14a14.75,14.75,0,0,1-5.28-4.57,22.94,22.94,0,0,0-4.91-5c-2-1.28-4.64-1.79-6.68-.62.14-3.24-2.19-6.25-5.14-7.62a21,21,0,0,0-11.18-1.11c-2.46.51-5,2-8.21,4.3a29.38,29.38,0,0,0-4.26,3.69c-1.94,2-5.81,5.4-9.52,4.4l.33,3.82c2,1.92,6.13.23,6.13.23s-2.38,2.37-4.61,2.32l.6,3.27s3.37.59,4.85-2Z" transform="translate(-47.49 -64.9)"/><path class="cls-9" d="M485.76,249.48s-.29-.48-.9-1.28a11.42,11.42,0,0,0-3.1-2.87,11.76,11.76,0,0,0-2.72-1.05,5.87,5.87,0,0,0-3.25-.07c-2.26.68-3.91,3-6.33,4.42a14,14,0,0,1-7.52,2.24,17.15,17.15,0,0,1-1.78-.08,1.63,1.63,0,0,0-.74,0,7.52,7.52,0,0,0-.71.34,6.78,6.78,0,0,0-1.9,2.13,5.37,5.37,0,0,1-3.7,2.19,5.42,5.42,0,0,1-1.18,0c-.27,0-.41-.05-.4-.07s.57,0,1.55-.15a5.25,5.25,0,0,0,3.45-2.2,6.88,6.88,0,0,1,2-2.29c.24-.12.46-.26.76-.38a1.94,1.94,0,0,1,.92-.07c.56,0,1.14.07,1.73.06a13.77,13.77,0,0,0,7.27-2.21,25,25,0,0,0,3.17-2.45,9.49,9.49,0,0,1,3.29-2,6.27,6.27,0,0,1,3.48.12,11.62,11.62,0,0,1,2.79,1.14,10.76,10.76,0,0,1,3.08,3.05,7.74,7.74,0,0,1,.6,1C485.73,249.34,485.78,249.48,485.76,249.48Z" transform="translate(-47.49 -64.9)"/><path class="cls-9" d="M495.47,254.9s0,.19-.17.51a4.94,4.94,0,0,1-.78,1.28,2.41,2.41,0,0,1-2.14.86,1.67,1.67,0,0,1-1.21-.85,2.52,2.52,0,0,1-.27-1.56l.46.12a2,2,0,0,1-1.74,1.17,2.37,2.37,0,0,1-1.82-.68,3.8,3.8,0,0,1-1-1.49,10,10,0,0,1-.41-2.86,14.6,14.6,0,0,0-.33-2.58,4.79,4.79,0,0,1,.67,2.55,10.35,10.35,0,0,0,.5,2.73,3.36,3.36,0,0,0,.86,1.3,2,2,0,0,0,1.47.54,1.53,1.53,0,0,0,1.32-.86l.83-2.07-.37,2.2a1.6,1.6,0,0,0,1.08,1.93,2.12,2.12,0,0,0,1.84-.66,6.76,6.76,0,0,0,.87-1.15C495.34,255,495.45,254.88,495.47,254.9Z" transform="translate(-47.49 -64.9)"/><path class="cls-9" d="M493.21,261.65a2.58,2.58,0,0,1-1.73.45,6,6,0,0,1-3.93-1.71,11.3,11.3,0,0,1-2.35-3.58,5.38,5.38,0,0,1-.58-1.67,7.77,7.77,0,0,1,.89,1.51,13.8,13.8,0,0,0,2.38,3.38,6.14,6.14,0,0,0,3.61,1.72A13.18,13.18,0,0,0,493.21,261.65Z" transform="translate(-47.49 -64.9)"/><path class="cls-9" d="M492.92,262.8a3,3,0,0,1-1.52.11,8.14,8.14,0,0,1-3.49-1.18,8,8,0,0,1-2.64-2.58,2.94,2.94,0,0,1-.59-1.4c.07,0,.33.48.88,1.2a9.46,9.46,0,0,0,5.89,3.61A10.82,10.82,0,0,1,492.92,262.8Z" transform="translate(-47.49 -64.9)"/><path class="cls-9" d="M496.9,239.79a10.88,10.88,0,0,1-1.54-.22,10.33,10.33,0,0,0-3.65.23,10.22,10.22,0,0,0-3.34,1.51c-.77.54-1.2,1-1.26.9a3.58,3.58,0,0,1,1.05-1.18,8.79,8.79,0,0,1,7.25-1.8A3.4,3.4,0,0,1,496.9,239.79Z" transform="translate(-47.49 -64.9)"/><path class="cls-9" d="M488.54,234.43a7.81,7.81,0,0,1-1.28,8.2,19.36,19.36,0,0,0,1.33-4A18.6,18.6,0,0,0,488.54,234.43Z" transform="translate(-47.49 -64.9)"/><path class="cls-9" d="M452.62,245.62a4.64,4.64,0,0,0,1.29.73,7,7,0,0,0,4-.47c.82-.27,1.71-.63,2.68-1a16.48,16.48,0,0,0,2.93-1.39c2-1.14,4-2.77,6.47-3.88a11.28,11.28,0,0,1,3.84-1,7,7,0,0,1,3.63.74c2.11,1.1,3.6,2.62,5.2,3.26a5.22,5.22,0,0,0,3.93.18,4.11,4.11,0,0,0,1.19-.88s-.05.13-.21.34a2.76,2.76,0,0,1-.9.71,5.24,5.24,0,0,1-4.14,0c-1.71-.63-3.25-2.15-5.27-3.17a6.58,6.58,0,0,0-3.4-.67,10.74,10.74,0,0,0-3.67,1c-2.41,1.06-4.41,2.68-6.45,3.81a15.52,15.52,0,0,1-3,1.38c-1,.34-1.86.69-2.7.95a7,7,0,0,1-4.15.31,2.71,2.71,0,0,1-1-.6A1.93,1.93,0,0,1,452.62,245.62Z" transform="translate(-47.49 -64.9)"/><path class="cls-9" d="M487.46,242.11a31.61,31.61,0,0,0-2.37-2.41,14,14,0,0,0-7.32-3.18,22.86,22.86,0,0,0-4.47,0,25,25,0,0,1-3.72.07,8.15,8.15,0,0,1-2.46-.54,2.38,2.38,0,0,1-.81-.43,12.65,12.65,0,0,0,3.29.62,27.55,27.55,0,0,0,3.67-.18,22.08,22.08,0,0,1,4.56-.08,13.64,13.64,0,0,1,7.49,3.41,12.23,12.23,0,0,1,1.67,1.87A2.76,2.76,0,0,1,487.46,242.11Z" transform="translate(-47.49 -64.9)"/><path class="cls-6" d="M468.71,272.49c0-.17,1.22-.31,2.26-1.29a6.65,6.65,0,0,0,1.13-1.44c.26-.41.45-.66.51-.63s0,.33-.2.79a4.5,4.5,0,0,1-1.1,1.65,3.7,3.7,0,0,1-1.77.91C469,272.58,468.72,272.54,468.71,272.49Z" transform="translate(-47.49 -64.9)"/><path class="cls-3" d="M629.62,444.33,646,435.05s14.93,13.52,18.13,12.1l-16.85-32.39-26.11,13.41Z" transform="translate(-47.49 -64.9)"/><g class="cls-10"><path class="cls-5" d="M639.38,425.76a1.51,1.51,0,0,1,1-1.7,1.45,1.45,0,0,1,1.7,1,1.58,1.58,0,0,1-1.11,1.8,1.49,1.49,0,0,1-1.64-1.25" transform="translate(-47.49 -64.9)"/></g><g class="cls-10"><path class="cls-5" d="M647.27,414.76l-2.58,1.46,17.12,30.51s1.38,1.12,2.31.42Z" transform="translate(-47.49 -64.9)"/></g><path class="cls-6" d="M646.1,435.66c.16-.09-.18-.92-.08-2s.55-1.8.42-1.92-.93.6-1,1.87S646,435.77,646.1,435.66Z" transform="translate(-47.49 -64.9)"/><path class="cls-6" d="M649.28,438.33c.17-.05.08-.87.47-1.76s1-1.41.93-1.56-1,.21-1.5,1.32S649.12,438.4,649.28,438.33Z" transform="translate(-47.49 -64.9)"/><path class="cls-6" d="M654.34,438.14c0-.16-.94,0-1.6.89s-.61,1.77-.44,1.77.39-.7.94-1.39S654.41,438.31,654.34,438.14Z" transform="translate(-47.49 -64.9)"/><path class="cls-6" d="M642.14,437.36c.11-.14-.49-.75-.89-1.68s-.49-1.77-.67-1.78-.39,1,.1,2S642.05,437.5,642.14,437.36Z" transform="translate(-47.49 -64.9)"/><g class="cls-11"><polygon points="585.38 377.59 588.3 375.94 579.87 360.1 577.18 361.47 585.38 377.59"/></g><path class="cls-6" d="M638.8,439.17c.07,0-.16-.71-.85-1.62a8.16,8.16,0,0,0-1.41-1.42,7.35,7.35,0,0,0-1-.68,2.32,2.32,0,0,0-.63-.29.77.77,0,0,0-.88.37,1,1,0,0,0,0,.88,2.06,2.06,0,0,0,.4.56,6.14,6.14,0,0,0,.87.83,6.61,6.61,0,0,0,1.76,1,3.08,3.08,0,0,0,1.81.26c0-.09-.67-.2-1.64-.67a7.29,7.29,0,0,1-1.57-1,7.11,7.11,0,0,1-.77-.78c-.27-.3-.42-.59-.32-.76s.07-.08.2-.06a1.77,1.77,0,0,1,.47.22,9.48,9.48,0,0,1,.94.6,10.05,10.05,0,0,1,1.41,1.26C638.35,438.63,638.71,439.22,638.8,439.17Z" transform="translate(-47.49 -64.9)"/><path class="cls-6" d="M638.92,438.85a2.9,2.9,0,0,0-1.79.38,5.93,5.93,0,0,0-1.66,1.15,6.36,6.36,0,0,0-.77.92,1.53,1.53,0,0,0-.28,1.47.86.86,0,0,0,.8.44,2.45,2.45,0,0,0,.68-.15,3.93,3.93,0,0,0,1.1-.56,4.18,4.18,0,0,0,1.31-1.57,2.37,2.37,0,0,0,.3-1.81,16.67,16.67,0,0,1-.68,1.6,4.31,4.31,0,0,1-1.26,1.31,3.64,3.64,0,0,1-.95.46c-.37.12-.72.14-.75,0a1,1,0,0,1,.24-.84,5.32,5.32,0,0,1,.67-.86,6.57,6.57,0,0,1,1.45-1.16C638.26,439.08,638.94,439,638.92,438.85Z" transform="translate(-47.49 -64.9)"/><path class="cls-3" d="M583,469.84l18.57-3s9.34,17.85,12.82,17.62l-4.61-36.22-29.13,3.56Z" transform="translate(-47.49 -64.9)"/><g class="cls-10"><path class="cls-5" d="M598.54,455.79a1.48,1.48,0,0,1,1.55-1.24,1.43,1.43,0,0,1,1.24,1.53,1.58,1.58,0,0,1-1.65,1.31,1.5,1.5,0,0,1-1.12-1.74" transform="translate(-47.49 -64.9)"/></g><g class="cls-10"><path class="cls-5" d="M609.74,448.19l-2.92.48,5.51,34.55s.91,1.52,2,1.19Z" transform="translate(-47.49 -64.9)"/></g><path class="cls-6" d="M601.42,467.4c.18,0,.15-.92.6-1.87s1.15-1.5,1.06-1.65-1.08.24-1.62,1.39S601.27,467.46,601.42,467.4Z" transform="translate(-47.49 -64.9)"/><path class="cls-6" d="M603.48,471c.18,0,.38-.79,1-1.48s1.44-1,1.41-1.15-1-.16-1.86.72S603.31,471,603.48,471Z" transform="translate(-47.49 -64.9)"/><path class="cls-6" d="M608.3,472.58c0-.17-.9-.3-1.81.27s-1.19,1.46-1,1.51.61-.52,1.36-1S608.31,472.75,608.3,472.58Z" transform="translate(-47.49 -64.9)"/><path class="cls-6" d="M597.11,467.62c.16-.09-.19-.87-.25-1.88s.16-1.83,0-1.9-.7.76-.61,1.94S597,467.73,597.11,467.62Z" transform="translate(-47.49 -64.9)"/><g class="cls-11"><polygon points="539.15 404.33 542.46 403.79 540.03 386.01 537.03 386.37 539.15 404.33"/></g><path class="cls-6" d="M593.36,468.17a3.51,3.51,0,0,0-.24-1.81,8.45,8.45,0,0,0-.83-1.83,9.53,9.53,0,0,0-.68-1,2.59,2.59,0,0,0-.5-.49.78.78,0,0,0-1,0,1,1,0,0,0-.31.82,2.7,2.7,0,0,0,.18.67,6.78,6.78,0,0,0,.53,1.08,6.85,6.85,0,0,0,1.31,1.53c.89.75,1.59,1,1.61.88s-.55-.42-1.31-1.2a7,7,0,0,1-1.11-1.5,7.06,7.06,0,0,1-.46-1c-.15-.37-.19-.69,0-.82s.08-.05.21,0a2,2,0,0,1,.36.36,10.36,10.36,0,0,1,.67.89,10.22,10.22,0,0,1,.89,1.67A12.12,12.12,0,0,0,593.36,468.17Z" transform="translate(-47.49 -64.9)"/><path class="cls-6" d="M593.58,467.91a2.86,2.86,0,0,0-1.81-.26,6,6,0,0,0-2,.5,5.87,5.87,0,0,0-1,.61A1.49,1.49,0,0,0,588,470a.85.85,0,0,0,.6.69,2.25,2.25,0,0,0,.69.1,3.78,3.78,0,0,0,1.23-.15,4.25,4.25,0,0,0,1.77-1c.85-.83,1-1.6.9-1.6s-.35.61-1.19,1.26a4.15,4.15,0,0,1-1.63.8,4.51,4.51,0,0,1-1,.1c-.39,0-.72-.12-.7-.27s.22-.52.51-.71a7,7,0,0,1,.93-.57,6.45,6.45,0,0,1,1.76-.58C592.88,467.9,593.57,468,593.58,467.91Z" transform="translate(-47.49 -64.9)"/><path class="cls-6" d="M506.73,369.64c-.58.23,8.79,9.26,10.3,15.36,1.81,7.38,6.75,15.8,6.75,15.8L558.4,434l65.2-9.54,11,20.1L556,465.83a14.31,14.31,0,0,1-12.27-2.33L493,425.8,464,389.8Z" transform="translate(-47.49 -64.9)"/><path class="cls-6" d="M459.1,392.55,463.3,408c11.78,24.35,34.22,70.43,40.16,73.4,8.26,4.13,84.23-11,84.23-11L586,449.45,522.29,455l-42.64-74.9Z" transform="translate(-47.49 -64.9)"/><path class="cls-9" d="M629.57,445.89l-.43.14-1.28.39-4.93,1.44-18.18,5.21-27,7.66-15.93,4.5c-1.39.38-2.76.81-4.19,1.16a19.32,19.32,0,0,1-4.43.54,20,20,0,0,1-8.83-2,21.82,21.82,0,0,1-3.87-2.45L537,459.76q-3.5-2.76-6.83-5.5c-4.42-3.66-8.65-7.25-12.59-10.76-7.92-7-14.8-13.56-20.4-19.24s-9.88-10.54-12.68-14c-.69-.88-1.31-1.65-1.85-2.33s-.92-1.28-1.26-1.77l-.78-1.09c-.17-.25-.24-.38-.24-.38l.29.35.81,1.07,1.3,1.73,1.88,2.3c2.84,3.43,7.15,8.24,12.78,13.89S510,436.2,517.88,443.16c4,3.5,8.17,7.07,12.6,10.73q3.32,2.73,6.82,5.48l3.54,2.74a20.69,20.69,0,0,0,3.79,2.39,19.4,19.4,0,0,0,12.92,1.42c1.4-.35,2.8-.77,4.18-1.15l15.94-4.48,27-7.56,18.21-5.05,5-1.36,1.3-.33A3.71,3.71,0,0,1,629.57,445.89Z" transform="translate(-47.49 -64.9)"/><path class="cls-9" d="M480.39,393.51c.05.07-.42.28-.51,1a1.27,1.27,0,0,0,.29,1,1.15,1.15,0,0,0,1.88-.81,1.24,1.24,0,0,0-.55-.91,1.87,1.87,0,0,0-1.05-.28s.08-.12.3-.17a1.34,1.34,0,0,1,.93.15,1.54,1.54,0,0,1,.82,1.17,1.57,1.57,0,0,1-2.67,1.16,1.58,1.58,0,0,1-.29-1.4,1.36,1.36,0,0,1,.52-.79C480.25,393.49,480.38,393.49,480.39,393.51Z" transform="translate(-47.49 -64.9)"/><path class="cls-9" d="M513.6,384.49a2.69,2.69,0,0,1-.57.61,13.55,13.55,0,0,1-1.83,1.38,15.67,15.67,0,0,1-14.56,1.12,12.92,12.92,0,0,1-2-1.08A2.74,2.74,0,0,1,494,386c.05-.07,1,.6,2.82,1.28a16.53,16.53,0,0,0,14.25-1.1C512.67,385.23,513.54,384.42,513.6,384.49Z" transform="translate(-47.49 -64.9)"/><path class="cls-9" d="M572.44,329.13s-45.33-17-48.08-19.46-14.72-16-19.7-17.75c0,0-8.08-2.12-13.58-1.81l-5.81.69v-4.41l-23.87.4-.66,5.87-4.07,1.54s-9.56,20-9.56,29.12-4.72,62.52,4.58,72.78c1.43,1.57,7,.55,7,.55s26.84-2.86,53.52-21.51l-9.77-11.29s-3.47-23.58.57-40.53c.09-.37.17-.73.26-1.1,11.55,5.7,29.33,14,34.55,14,0,0,29.24,9.88,34.64,3.55C573.06,339.07,572.44,329.13,572.44,329.13Z" transform="translate(-47.49 -64.9)"/><path class="cls-9" d="M461.31,293.32s-9.35.38-15.44,7.95-16,39.86-16,39.86l-13.64-14-13,7.22s18.38,25.62,22,28.58a19.6,19.6,0,0,0,6.64,2.84c8.73.75,14.63-8.14,16.42-15.47l6-30.13" transform="translate(-47.49 -64.9)"/><path class="cls-7" d="M407.18,332.11l-14-8.31s-4.23-10-2.61-10.47,3,5.57,3,5.57l2,1s-2.73-5.08-1.78-5.57,2.28,1,3,2.17c.56.89,2.37,4.57,2.37,4.57l.94-1.29-.74-3.41s-1-2.28.11-2.3,1.11-.1,1.94,1.78,1.4,3.3,1.4,3.3,4.08,2.43,4.95,2.16a5.11,5.11,0,0,1,4,.31s3.87,2,2.94,6.14" transform="translate(-47.49 -64.9)"/><path class="cls-6" d="M501.88,294.64c.07,0-.3,1-.75,2.52a27.92,27.92,0,0,0-.69,12.46c.26,1.6.53,2.57.45,2.59a9.44,9.44,0,0,1-.8-2.52,23.82,23.82,0,0,1,.71-12.64A9.2,9.2,0,0,1,501.88,294.64Z" transform="translate(-47.49 -64.9)"/><path class="cls-6" d="M464.41,293.39a15,15,0,0,1,.27-6.76,16.46,16.46,0,0,1,0,3.38A16.77,16.77,0,0,1,464.41,293.39Z" transform="translate(-47.49 -64.9)"/><path class="cls-6" d="M470,294.23a14.74,14.74,0,0,1,.08-3.82,15.61,15.61,0,0,1,.58-3.78,14.48,14.48,0,0,1-.09,3.82A15.34,15.34,0,0,1,470,294.23Z" transform="translate(-47.49 -64.9)"/><path class="cls-6" d="M477.44,294c-.14,0,.21-1.66.34-3.7s0-3.69.18-3.7a12.32,12.32,0,0,1-.52,7.4Z" transform="translate(-47.49 -64.9)"/><path class="cls-6" d="M482.9,292.66c-.14,0,.08-1.41.05-3.1s-.29-3.07-.15-3.11a6,6,0,0,1,.64,3.1A6.12,6.12,0,0,1,482.9,292.66Z" transform="translate(-47.49 -64.9)"/><path class="cls-6" d="M447.6,305.55c.13,0,0,13.06-.3,29.16s-.66,29.15-.8,29.15,0-13.06.31-29.16S447.46,305.55,447.6,305.55Z" transform="translate(-47.49 -64.9)"/><path class="cls-12" d="M446.7,336.24a10.65,10.65,0,0,1-2-1.11A27.62,27.62,0,0,0,440,332.7a12,12,0,0,0-5.22-.77c-1.36.13-2.16.48-2.19.39a4.73,4.73,0,0,1,2.15-.73,11,11,0,0,1,5.43.64,21.47,21.47,0,0,1,4.8,2.61A9.33,9.33,0,0,1,446.7,336.24Z" transform="translate(-47.49 -64.9)"/><path class="cls-12" d="M501.36,327.09a4,4,0,0,1-.47.31l-1.38.8c-.6.35-1.35.77-2.24,1.19s-1.88,1-3,1.45-2.38,1.05-3.76,1.54-2.85,1-4.41,1.53A74.32,74.32,0,0,1,465,337.19c-1.65,0-3.21,0-4.67-.11s-2.82-.19-4.06-.33-2.34-.31-3.32-.45-1.81-.31-2.49-.46l-1.56-.34a2.31,2.31,0,0,1-.54-.16,3.68,3.68,0,0,1,.56.06l1.58.25c.68.12,1.51.26,2.49.37s2.08.3,3.32.38,2.58.24,4,.27,3,.07,4.64.07a77.08,77.08,0,0,0,21-3.27c1.56-.49,3.05-.94,4.4-1.47s2.63-1,3.77-1.48,2.15-1,3-1.37,1.65-.79,2.27-1.12l1.42-.72A2.58,2.58,0,0,1,501.36,327.09Z" transform="translate(-47.49 -64.9)"/><path class="cls-12" d="M527.67,312.61c.05.07-.8.64-2,1.7a26,26,0,0,0-4.26,4.69,26.41,26.41,0,0,0-3,5.59c-.58,1.53-.83,2.51-.91,2.49a2.23,2.23,0,0,1,.08-.71,15.64,15.64,0,0,1,.5-1.89A22.12,22.12,0,0,1,525.42,314a15.57,15.57,0,0,1,1.61-1.11C527.43,312.7,527.65,312.58,527.67,312.61Z" transform="translate(-47.49 -64.9)"/><path class="cls-12" d="M532.74,314.18c0,.08-1,.53-2.47,1.5a22.6,22.6,0,0,0-5.12,4.65,22.1,22.1,0,0,0-3.41,6c-.63,1.66-.85,2.75-.93,2.74a2.16,2.16,0,0,1,.07-.79,14.31,14.31,0,0,1,.53-2.07,19.84,19.84,0,0,1,8.67-10.83,13.48,13.48,0,0,1,1.91-1A2.46,2.46,0,0,1,532.74,314.18Z" transform="translate(-47.49 -64.9)"/><path class="cls-12" d="M501.72,323a2.27,2.27,0,0,1-.51.24l-1.47.61c-.64.26-1.43.56-2.36.88s-2,.71-3.17,1.06c-2.36.76-5.21,1.54-8.4,2.26s-6.75,1.33-10.5,1.78-7.36.63-10.63.68-6.23-.07-8.7-.27c-1.23-.07-2.34-.21-3.32-.31s-1.82-.21-2.5-.32l-1.58-.25a2,2,0,0,1-.54-.12,3,3,0,0,1,.56,0l1.58.16c.69.08,1.53.16,2.51.23s2.08.19,3.32.24c2.46.15,5.4.22,8.66.17s6.84-.29,10.58-.72,7.27-1.06,10.46-1.73,6-1.43,8.4-2.15c1.19-.33,2.24-.7,3.18-1s1.73-.57,2.38-.8l1.51-.52A3,3,0,0,1,501.72,323Z" transform="translate(-47.49 -64.9)"/><path class="cls-12" d="M447.2,328.65a37.21,37.21,0,0,0-5.33-2.89,36.67,36.67,0,0,0-5.88-1.47,4.94,4.94,0,0,1,1.81,0,16.25,16.25,0,0,1,4.25,1,16,16,0,0,1,3.82,2.11A5.14,5.14,0,0,1,447.2,328.65Z" transform="translate(-47.49 -64.9)"/><path class="cls-7" d="M587.36,325.37l-9.9,3.32-5,.44v10.66l5.14,1.76,13.79-.76s7.9,4,9.91,3.77,2-.87,2-.87l-9.77-5.9a5.52,5.52,0,0,1,3.76.5c2.25,1,6.14,3.26,7.52,2.63s1.13-1.13,1.13-1.13L598.27,335s6.55,2.94,7.67,2.44a2,2,0,0,0,1.23-1.48l-4.26-3.79-6.4-5Z" transform="translate(-47.49 -64.9)"/><path class="cls-8" d="M581.86,329.77a5.35,5.35,0,0,1,1.08.44c.67.31,1.64.78,2.83,1.38s2.6,1.31,4.15,2.19a3.82,3.82,0,0,1,1.11.88,2.66,2.66,0,0,1,.59,1.41,2.43,2.43,0,0,1-.34,1.56,2.35,2.35,0,0,1-1.38.9,4.51,4.51,0,0,1-2.19,0,14.26,14.26,0,0,1-1.91-.68c-1.2-.51-2.3-1-3.3-1.53l.26-.06a6.09,6.09,0,0,1-2.3,1.83,5.16,5.16,0,0,1-2.22.41,5.34,5.34,0,0,1-1.42-.23c-.31-.11-.47-.2-.46-.22a9.3,9.3,0,0,0,1.89.21,5.15,5.15,0,0,0,2.07-.49,5.58,5.58,0,0,0,2.11-1.77l.1-.13.15.07c1,.48,2.11,1,3.3,1.47a15.53,15.53,0,0,0,1.85.65,4.11,4.11,0,0,0,1.94,0,1.83,1.83,0,0,0,1.1-.69,2,2,0,0,0,.27-1.24,2.52,2.52,0,0,0-1.46-1.95c-1.5-.89-2.91-1.63-4.07-2.27l-2.76-1.52A6.15,6.15,0,0,1,581.86,329.77Z" transform="translate(-47.49 -64.9)"/><path class="cls-8" d="M598.74,335a19,19,0,0,1-4.38-2.71,9.73,9.73,0,0,1-.89-.78l.3,0a6.18,6.18,0,0,1-2.82.76,2.18,2.18,0,0,1-1.14-.11,6.27,6.27,0,0,1,1.11-.2,7.24,7.24,0,0,0,2.58-.85l.17-.1.14.13c.25.24.55.49.85.73A45.21,45.21,0,0,1,598.74,335Z" transform="translate(-47.49 -64.9)"/><path class="cls-3" d="M615.63,411.64a20.5,20.5,0,0,1-5.9-.86c-19-5.69-18-19.4-17.23-30.41.74-10.28.77-16.74-7.7-19.92-11.21-4.2-15.82-.12-22.81,6.06-8.32,7.36-18.66,16.52-43.76,12.8-13-1.93-34-8.8-59.71-30.57a204.15,204.15,0,0,1-25.33-25.41l3.88-3.11c.39.47,38.78,47.78,81.89,54.17,22.8,3.37,31.79-4.59,39.73-11.61,7.12-6.3,13.84-12.24,27.86-7,12.38,4.65,11.61,15.43,10.92,24.94-.8,11.12-1.49,20.74,13.69,25.28,17.1,5.12,39.59-22,53-38.16,4.8-5.77,8.13-10,10.79-12.11l3.76,3c-1.66,2-6.28,7-10.72,12.32C654.33,387.53,634.31,411.63,615.63,411.64Z" transform="translate(-47.49 -64.9)"/><path class="cls-5" d="M545.14,372.21s-.2.19-.6.45a17.28,17.28,0,0,1-1.75,1,25.94,25.94,0,0,1-6.29,2.16,26.41,26.41,0,0,1-6.62.51,16.86,16.86,0,0,1-2-.21,2.52,2.52,0,0,1-.72-.17c0-.08,1.06,0,2.74,0a31.12,31.12,0,0,0,12.75-2.63C544.18,372.65,545.1,372.15,545.14,372.21Z" transform="translate(-47.49 -64.9)"/><path class="cls-5" d="M574.38,357.17a11.79,11.79,0,0,1-1.63-.05,11.11,11.11,0,0,0-7.19,2.47,11.08,11.08,0,0,1-1.25,1.05,3.67,3.67,0,0,1,1-1.31,9.65,9.65,0,0,1,7.44-2.56A3.8,3.8,0,0,1,574.38,357.17Z" transform="translate(-47.49 -64.9)"/><path class="cls-5" d="M606.23,404.4a6.58,6.58,0,0,1-2.25-.69,14.52,14.52,0,0,1-7.56-8.18,6.62,6.62,0,0,1-.51-2.29c.08,0,.28.85.84,2.17a16.49,16.49,0,0,0,3,4.64,16.2,16.2,0,0,0,4.39,3.35C605.4,404.05,606.26,404.32,606.23,404.4Z" transform="translate(-47.49 -64.9)"/><path class="cls-5" d="M675.86,357.54a32.08,32.08,0,0,1-3.76,4.1A31.42,31.42,0,0,1,668,365.4a31.55,31.55,0,0,1,3.77-4.11A31.19,31.19,0,0,1,675.86,357.54Z" transform="translate(-47.49 -64.9)"/><path class="cls-3" d="M437.6,324.44h0a5.74,5.74,0,0,1-8.12.38l-8.78-8,7.74-8.51,8.77,8A5.75,5.75,0,0,1,437.6,324.44Z" transform="translate(-47.49 -64.9)"/><path class="cls-6" d="M437.6,324.44a15.52,15.52,0,0,0,.81-1.35,5.67,5.67,0,0,0,.27-4.17,5.6,5.6,0,0,0-1.59-2.47l-2.65-2.37-6.16-5.56.34,0-3.87,4.26L420.88,317v-.34l6.12,5.61,2.62,2.41a5.54,5.54,0,0,0,2.6,1.35,5.69,5.69,0,0,0,4.13-.67c.86-.53,1.23-1,1.26-.93a4.25,4.25,0,0,1-1.17,1.07,5.76,5.76,0,0,1-4.28.84,5.93,5.93,0,0,1-2.79-1.39l-2.65-2.37L420.54,317l-.18-.16.17-.18,3.86-4.26,3.87-4.25.16-.18.18.16,6.12,5.61,2.62,2.41a6,6,0,0,1,1.64,2.65,5.76,5.76,0,0,1-.42,4.34A4.36,4.36,0,0,1,437.6,324.44Z" transform="translate(-47.49 -64.9)"/><path class="cls-3" d="M393.24,276.39,378.1,263.88a2.79,2.79,0,0,1-.37-3.93h0a2.79,2.79,0,0,1,3.93-.38l15.13,12.52Z" transform="translate(-47.49 -64.9)"/><path class="cls-3" d="M379,294.68l-15.13-12.52a2.79,2.79,0,0,1-.38-3.93h0a2.79,2.79,0,0,1,3.93-.37l15.14,12.52Z" transform="translate(-47.49 -64.9)"/><g class="cls-10"><path class="cls-5" d="M393.24,276.39,378.1,263.88a2.79,2.79,0,0,1-.37-3.93h0a2.79,2.79,0,0,1,3.93-.38l15.13,12.52Z" transform="translate(-47.49 -64.9)"/></g><g class="cls-10"><path class="cls-5" d="M379,294.68l-15.13-12.52a2.79,2.79,0,0,1-.38-3.93h0a2.79,2.79,0,0,1,3.93-.37l15.14,12.52Z" transform="translate(-47.49 -64.9)"/></g><path class="cls-6" d="M393.24,276.39l.23-.33.68-.87,2.53-3.19,0,.21-7.11-5.79-4.45-3.66-2.39-2-1.23-1a2.62,2.62,0,0,0-1.33-.58,2.55,2.55,0,0,0-2.78,3.14,2.45,2.45,0,0,0,.54,1.05,8.05,8.05,0,0,0,.91.81l1.88,1.57,6.48,5.45c1.82,1.54,3.3,2.81,4.39,3.74.49.42.89.76,1.2,1a5,5,0,0,1,.43.39,2.08,2.08,0,0,1-.42-.29l-1.2-1-4.47-3.59c-1.91-1.55-4.16-3.39-6.66-5.41l-1.92-1.58a8.57,8.57,0,0,1-1-.87,3,3,0,0,1,0-3.95,3,3,0,0,1,2.67-1,3.12,3.12,0,0,1,1.59.69l1.22,1,2.38,2,4.43,3.69,7,5.9.12.1-.1.11-2.71,3.15-.72.81C393.32,276.32,393.24,276.41,393.24,276.39Z" transform="translate(-47.49 -64.9)"/><path class="cls-6" d="M379,294.68a2.5,2.5,0,0,1,.24-.33c.18-.24.4-.53.68-.88l2.53-3.19,0,.21-7.11-5.78-4.45-3.66c-.79-.64-1.58-1.3-2.39-2l-1.23-1a2.46,2.46,0,0,0-1.34-.58,2.53,2.53,0,0,0-2.77,3.14,2.34,2.34,0,0,0,.53,1,8.24,8.24,0,0,0,.92.82l1.87,1.56L373,289.5l4.39,3.74,1.2,1a3.31,3.31,0,0,1,.42.4,3,3,0,0,1-.41-.3l-1.21-.95-4.47-3.59-6.65-5.41-1.92-1.57a11,11,0,0,1-1-.87,2.89,2.89,0,0,1-.64-1.24A3,3,0,0,1,366,277a3.05,3.05,0,0,1,1.59.69l1.23,1,2.38,2,4.43,3.69,7,5.89.11.1-.09.11L380,293.63l-.71.8C379.1,294.61,379,294.69,379,294.68Z" transform="translate(-47.49 -64.9)"/><path class="cls-3" d="M427.64,292.22l.4-.48a5.35,5.35,0,0,0-7.44-7.61l-22.16-18.45L373.09,296l22.68,18a5.34,5.34,0,0,0,1.09,7h0a5.34,5.34,0,0,0,7.44-.61,15.41,15.41,0,0,0,21.31-2.68l3.64-4.54A15.42,15.42,0,0,0,427.64,292.22Z" transform="translate(-47.49 -64.9)"/><path class="cls-6" d="M427.64,292.22l.19.18.53.5a7.56,7.56,0,0,1,.81.89l.49.59.5.73a14.62,14.62,0,0,1,2,4.17,15.4,15.4,0,0,1-2.23,13.33c-.81,1.16-1.75,2.24-2.67,3.43a30.12,30.12,0,0,1-3.07,3.54,15.45,15.45,0,0,1-9.26,4.1,15.66,15.66,0,0,1-10.73-3.07l.31,0a5.59,5.59,0,0,1-7.76.65h0a5.59,5.59,0,0,1-1.14-7.32l.05.32-17.55-14-5.13-4.08-.2-.16.16-.19,25.38-30.31.14-.16.16.13L420.69,284h-.17a5.46,5.46,0,0,1,8.82,4.35,5.28,5.28,0,0,1-1,3,5.57,5.57,0,0,1-.52.63l-.19.21s.24-.29.65-.88a5.4,5.4,0,0,0,.9-3,5.25,5.25,0,0,0-8.5-4.13l-.09.07-.09-.07-22.2-18.4.3,0-25.33,30.35,0-.35,5.12,4.08,17.55,14,.17.14-.12.18a5.12,5.12,0,0,0,1,6.7l0,0,0,0a5.1,5.1,0,0,0,3.78,1.15,5.17,5.17,0,0,0,3.35-1.73l.14-.16.16.13a15.27,15.27,0,0,0,10.43,3,15,15,0,0,0,9-3.95,29.11,29.11,0,0,0,3-3.49c.93-1.17,1.89-2.27,2.69-3.39a15.35,15.35,0,0,0,.42-17.24l-.49-.73-.48-.61a9,9,0,0,0-.78-.91l-.51-.54Q427.63,292.22,427.64,292.22Z" transform="translate(-47.49 -64.9)"/><rect class="cls-2" x="383.04" y="285.92" width="20.29" height="3.97" transform="translate(226.19 -249.43) rotate(39.59)"/><path class="cls-6" d="M427.64,292.22a8.91,8.91,0,0,1-.84,1.19c-.56.74-1.39,1.81-2.43,3.11-2.07,2.6-5,6.15-8.27,10s-6.18,7.34-8.39,9.95l-2.54,3a7.82,7.82,0,0,1-1,1.07,8.19,8.19,0,0,1,.84-1.19c.56-.74,1.39-1.81,2.43-3.11,2.07-2.6,5-6.15,8.27-10s6.18-7.34,8.39-9.95l2.55-3A7.47,7.47,0,0,1,427.64,292.22Z" transform="translate(-47.49 -64.9)"/><path class="cls-6" d="M420.6,284.13a7.54,7.54,0,0,1-.9,1.25c-.61.78-1.51,1.89-2.62,3.26-2.24,2.74-5.38,6.48-8.88,10.58l-9,10.49c-1.12,1.29-2,2.35-2.74,3.17a9.44,9.44,0,0,1-1.06,1.12,9.12,9.12,0,0,1,.91-1.25c.61-.78,1.5-1.89,2.62-3.26,2.24-2.74,5.38-6.48,8.88-10.59s6.64-7.73,9-10.48l2.74-3.16A9.73,9.73,0,0,1,420.6,284.13Z" transform="translate(-47.49 -64.9)"/></g><g id="Character_1" data-name="Character 1"><path class="cls-13" d="M321,203.73c-.14.34-11.17,8.72-11.17,8.72l-.21,7.12,5.7.8,8.1-4.61,5.49-.28s3.35,1.78,4,2a1.94,1.94,0,0,0,2.25-.94l-5-3.64s5.54,3.09,6.07,2.68a1.71,1.71,0,0,0-.53-2.66s1.72.9,2.81.17.7-1.6.7-1.6l-7.32-6.57a5,5,0,0,0-3.41-1.28Z" transform="translate(-47.49 -64.9)"/><path class="cls-14" d="M321.88,206.83a4.74,4.74,0,0,1-.08.84c-.1.62-.22,1.4-.37,2.34l-.14-.16,4.21-.28a5.31,5.31,0,0,1,2.67.36,2.52,2.52,0,0,1,1.1,1.07,1.85,1.85,0,0,1,.07,1.64l0,.06-.06,0c-1.33.78-3,.61-4.45.7a5.3,5.3,0,0,0-3.1,1.13,20.54,20.54,0,0,0-2.31,2.25,10.58,10.58,0,0,1-2.3,1.93,5.28,5.28,0,0,1-2.54.72,10.15,10.15,0,0,1-3.68-.78,5.46,5.46,0,0,1-1.24-.57,9.43,9.43,0,0,1,1.31.39,10.87,10.87,0,0,0,3.6.61,4.93,4.93,0,0,0,2.34-.72,10.22,10.22,0,0,0,2.18-1.89,21.41,21.41,0,0,1,2.34-2.32,5.72,5.72,0,0,1,3.37-1.24c1.55-.09,3.09.06,4.24-.62l-.1.09a1.71,1.71,0,0,0-.94-2.09,5,5,0,0,0-2.45-.36l-4.22.16h-.18l0-.18c.2-.93.37-1.7.5-2.32A3,3,0,0,1,321.88,206.83Z" transform="translate(-47.49 -64.9)"/><path class="cls-14" d="M336.05,213.06a5,5,0,0,1-1.88-1.1c-1.08-.83-2.26-2.29-3.87-3.45a2.75,2.75,0,0,0-1.24-.53c-.44,0-.91,0-1.35,0h-2.35a9.11,9.11,0,0,1-2.16-.14,9.57,9.57,0,0,1,2.16-.21l2.34-.09a13.24,13.24,0,0,1,1.41,0,3.13,3.13,0,0,1,1.47.6,40.15,40.15,0,0,1,3.81,3.6C335.36,212.59,336.09,213,336.05,213.06Z" transform="translate(-47.49 -64.9)"/><path class="cls-3" d="M336.56,424.73l-.27,17.5s17.69,6.15,17.95,9.38l-33.93.7-.7-27.28Z" transform="translate(-47.49 -64.9)"/><g class="cls-10"><path class="cls-5" d="M325.76,441a1.38,1.38,0,0,0-.92,1.6,1.32,1.32,0,0,0,1.58.93,1.46,1.46,0,0,0,1-1.7,1.38,1.38,0,0,0-1.75-.78" transform="translate(-47.49 -64.9)"/></g><g class="cls-10"><path class="cls-5" d="M320.31,452.31l0-2.75,32.53.36s1.52.63,1.37,1.69Z" transform="translate(-47.49 -64.9)"/></g><path class="cls-6" d="M336.83,442c0,.17-.82.26-1.63.81s-1.22,1.26-1.38,1.19.08-1,1.06-1.67S336.87,441.89,336.83,442Z" transform="translate(-47.49 -64.9)"/><path class="cls-6" d="M340.42,443.44c.05.16-.67.46-1.22,1.17s-.69,1.46-.86,1.45-.29-.93.41-1.81S340.42,443.28,340.42,443.44Z" transform="translate(-47.49 -64.9)"/><path class="cls-6" d="M342.53,447.66c-.15,0-.39-.78,0-1.7s1.18-1.29,1.25-1.16-.4.64-.72,1.39S342.7,447.64,342.53,447.66Z" transform="translate(-47.49 -64.9)"/><path class="cls-6" d="M336.45,438.05c-.06.15-.83-.06-1.76,0s-1.66.39-1.75.25.6-.74,1.7-.82S336.53,437.92,336.45,438.05Z" transform="translate(-47.49 -64.9)"/><g class="cls-11"><polygon points="289.01 363.3 288.97 366.42 272.29 366.61 272.21 363.8 289.01 363.3"/></g><path class="cls-6" d="M336.44,434.52a3.23,3.23,0,0,1-1.7,0A7.84,7.84,0,0,1,333,434a10.09,10.09,0,0,1-1-.5,2.14,2.14,0,0,1-.52-.39.73.73,0,0,1-.1-.88.94.94,0,0,1,.72-.4,2.43,2.43,0,0,1,.64.08,5.48,5.48,0,0,1,1.06.34,5.72,5.72,0,0,1,1.59,1c.8.71,1.09,1.32,1,1.36s-.47-.46-1.28-1a7.1,7.1,0,0,0-1.54-.83,6.64,6.64,0,0,0-1-.28c-.36-.08-.66-.08-.75.08s0,.09,0,.19a1.5,1.5,0,0,0,.38.28,9.22,9.22,0,0,0,.91.5,10,10,0,0,0,1.66.6A11.91,11.91,0,0,1,336.44,434.52Z" transform="translate(-47.49 -64.9)"/><path class="cls-6" d="M336.23,434.76a2.66,2.66,0,0,1-.48-1.63,5.55,5.55,0,0,1,.19-1.87,6,6,0,0,1,.42-1,1.4,1.4,0,0,1,1.06-.88.79.79,0,0,1,.72.46,2.17,2.17,0,0,1,.19.62,3.72,3.72,0,0,1,0,1.15,3.85,3.85,0,0,1-.69,1.77c-.64.89-1.33,1.1-1.34,1.05s.51-.42,1-1.27a4.13,4.13,0,0,0,.51-1.61,3.62,3.62,0,0,0-.06-1c-.06-.36-.2-.65-.33-.61s-.45.28-.59.57a6.21,6.21,0,0,0-.4.93,5.88,5.88,0,0,0-.29,1.7C336.13,434.12,336.32,434.73,336.23,434.76Z" transform="translate(-47.49 -64.9)"/><path class="cls-6" d="M274.8,325.84c.83,1.24,37.67,39.46,37.67,39.46s-4.58,17.62-2.93,32.92,6.62,39.72,6.62,39.72l26.71-2.13-7.27-83-29.16-38.52Z" transform="translate(-47.49 -64.9)"/><path class="cls-3" d="M345.79,405.4l3.28,17.18s18.57,2.44,19.49,5.56l-33.1,7.55-6.2-26.56Z" transform="translate(-47.49 -64.9)"/><g class="cls-10"><path class="cls-5" d="M338.51,423.49a1.38,1.38,0,0,0-.58,1.75,1.33,1.33,0,0,0,1.73.59,1.46,1.46,0,0,0,.61-1.86,1.38,1.38,0,0,0-1.87-.41" transform="translate(-47.49 -64.9)"/></g><g class="cls-10"><path class="cls-5" d="M335.46,435.69l-.52-2.7,31.93-6.23s1.62.31,1.69,1.38Z" transform="translate(-47.49 -64.9)"/></g><path class="cls-6" d="M349.57,422.29c0,.17-.76.42-1.44,1.13s-.94,1.47-1.1,1.44-.14-1,.69-1.85S349.57,422.14,349.57,422.29Z" transform="translate(-47.49 -64.9)"/><path class="cls-6" d="M353.37,422.94c.07.15-.57.58-1,1.39s-.39,1.57-.55,1.6-.47-.86,0-1.86S353.33,422.78,353.37,422.94Z" transform="translate(-47.49 -64.9)"/><path class="cls-6" d="M356.29,426.64c-.14.07-.55-.69-.34-1.67s.89-1.5,1-1.38-.26.7-.42,1.5S356.44,426.59,356.29,426.64Z" transform="translate(-47.49 -64.9)"/><path class="cls-6" d="M348.39,418.46c0,.16-.83.11-1.73.38s-1.54.72-1.66.6.44-.85,1.5-1.15S348.44,418.32,348.39,418.46Z" transform="translate(-47.49 -64.9)"/><g class="cls-11"><polygon points="298.95 343.91 299.54 346.97 283.24 350.53 282.6 347.8 298.95 343.91"/></g><path class="cls-6" d="M347.66,415a3.23,3.23,0,0,1-1.66.36,7.75,7.75,0,0,1-1.85-.13,7.42,7.42,0,0,1-1.07-.29,1.94,1.94,0,0,1-.59-.28.71.71,0,0,1-.27-.84.92.92,0,0,1,.62-.53,2.61,2.61,0,0,1,.65-.06,6.62,6.62,0,0,1,1.11.12,5.93,5.93,0,0,1,1.75.66c.93.53,1.33,1.08,1.29,1.12s-.55-.35-1.47-.76a6.75,6.75,0,0,0-1.67-.49,6.59,6.59,0,0,0-1-.08c-.37,0-.67.05-.72.23s0,.09.08.18a2.52,2.52,0,0,0,.43.2q.51.18,1,.3A10.39,10.39,0,0,0,346,415,9.9,9.9,0,0,1,347.66,415Z" transform="translate(-47.49 -64.9)"/><path class="cls-6" d="M347.51,415.28c-.06,0-.51-.46-.81-1.5a5.85,5.85,0,0,1-.19-1.86,5.65,5.65,0,0,1,.2-1.11,1.38,1.38,0,0,1,.86-1.07.78.78,0,0,1,.8.3,2.31,2.31,0,0,1,.31.57,3.79,3.79,0,0,1,.26,1.12,4,4,0,0,1-.32,1.87c-.45,1-1.08,1.35-1.11,1.3a13.72,13.72,0,0,0,.73-1.45,4,4,0,0,0,.17-1.67,3.61,3.61,0,0,0-.25-.95c-.13-.34-.33-.6-.45-.53s-.39.36-.46.67a6.15,6.15,0,0,0-.21,1,6,6,0,0,0,.06,1.72C347.28,414.67,347.59,415.24,347.51,415.28Z" transform="translate(-47.49 -64.9)"/><path class="cls-6" d="M208.9,299.68s-2.47,15.82,7.11,26.16,19.91,14.89,38.11,14.06,57.49.1,57.49.1,1.66,21,6.21,38.17,13.63,42.95,13.63,42.95l17.8-1.7s-4.81-93.57-6.05-101.84-15-12.47-22.49-14.95-50.16-11.05-50.16-11.05l-38.77-5.43Z" transform="translate(-47.49 -64.9)"/><path class="cls-9" d="M349.25,419.42l-.31,0-.93.08-3.62.26-13.63.9h-.12l0-.11c-2.39-7.66-5.49-17.61-9.08-29.1-1.79-5.75-3.69-11.88-5.69-18.3-1-3.21-2.07-6.5-2.8-9.93a67,67,0,0,1-1.49-10.6,50.62,50.62,0,0,1,.67-12.5l.23.3c-10.85-.22-21.07-.34-30.29-.37-4.61,0-9,0-13,.07s-7.84.21-11.29.21c-6.88,0-12.39-.35-16.18-.67-1.89-.17-3.36-.33-4.34-.44l-1.13-.14-.38-.07.39,0,1.12.1,4.35.35c3.79.27,9.3.59,16.17.53,3.43,0,7.21-.21,11.28-.27s8.44-.11,13-.12c9.23,0,19.45.1,30.3.31h.29l-.06.29a50.85,50.85,0,0,0-.65,12.36,67.13,67.13,0,0,0,1.47,10.52c.74,3.42,1.8,6.67,2.79,9.89,2,6.42,3.87,12.56,5.65,18.32,3.53,11.5,6.59,21.47,8.95,29.14l-.15-.1,13.64-.76,3.62-.19.93,0Z" transform="translate(-47.49 -64.9)"/><path class="cls-9" d="M321,329.21c.1.11-2.11,2.24-4.37,5.26s-3.7,5.73-3.84,5.66a7.16,7.16,0,0,1,.82-1.85,31.67,31.67,0,0,1,2.63-4.11,30.74,30.74,0,0,1,3.21-3.66A6.58,6.58,0,0,1,321,329.21Z" transform="translate(-47.49 -64.9)"/><path class="cls-9" d="M325.83,330.94a38.66,38.66,0,0,0-7,3.59,39.46,39.46,0,0,0-5.84,5.31,8.71,8.71,0,0,1,1.35-1.92,22,22,0,0,1,9.26-6.4A7.75,7.75,0,0,1,325.83,330.94Z" transform="translate(-47.49 -64.9)"/><path class="cls-9" d="M246.39,204.75c1.31.65,28.62,17.35,29.92,17.35s33.61-11.78,33.61-11.78l6.62,10.21s-28.33,21.82-37.61,22.15-24-7.14-24-7.14Z" transform="translate(-47.49 -64.9)"/><path class="cls-9" d="M189.57,213.93s-34,34.55-33.62,43.35,4.64,13.62,7.34,14.77c3.77,1.59,46.33-3.65,46.33-3.65l2.52-16.56c-7-1.39-15.87-2.43-25.48-3.35,4.31-4.51,9.1-7.94,15-8.94l10.18-11.06S199.17,211.77,189.57,213.93Z" transform="translate(-47.49 -64.9)"/><path class="cls-9" d="M187.81,224.27s-1.63-7.46,2-10.45c6-5,11.12-7.27,15.48-9.44,5-2.49,10.29-5.36,10.29-5.36l30.85,5.73s16.47,26.31,16.12,32.78a17.16,17.16,0,0,1-4.45,10.53,39.8,39.8,0,0,0,2.25,21.11c3.69,9.16,10.24,22.41,10.24,22.41s-35.36-5.73-52.13,2.47c-9,4.4-9.81,11.41-9.81,11.41L207.3,267h0l-6.93-23.59Z" transform="translate(-47.49 -64.9)"/><path class="cls-6" d="M211.18,251.63s-.16-.06-.47-.13-.76-.15-1.36-.24c-1.2-.17-2.93-.39-5.08-.63-4.3-.49-10.25-1.09-16.82-1.73l-1.13-.1-.61-.06.48-.38c2.49-2,4.83-3.85,7-5.53a17.42,17.42,0,0,1,6.65-2.94,17,17,0,0,1,4.87-.32c.57.06,1,.12,1.31.18a2.12,2.12,0,0,1,.44.11,21.08,21.08,0,0,0-6.55.36,17.59,17.59,0,0,0-6.45,3l-7,5.55-.13-.43,1.14.1c6.57.64,12.52,1.29,16.81,1.87S211.25,251.41,211.18,251.63Z" transform="translate(-47.49 -64.9)"/><path class="cls-6" d="M174.66,249.24A4,4,0,0,1,176,248a8.78,8.78,0,0,1,8.61-.44,4,4,0,0,1,1.5,1.07c-.05.07-.62-.33-1.65-.75a9.62,9.62,0,0,0-4.19-.74,10,10,0,0,0-4.09,1.16C175.25,248.84,174.71,249.3,174.66,249.24Z" transform="translate(-47.49 -64.9)"/><path class="cls-6" d="M207,228.12c-.09,0-.39-1.26-1.13-3.24a22.42,22.42,0,0,0-4.14-7,13.94,13.94,0,0,0-3.5-2.78l-.9-.44c-.29-.14-.6-.22-.89-.33a9.6,9.6,0,0,0-1.65-.43,13.08,13.08,0,0,0-2.47-.2,3,3,0,0,1-.93,0,3.91,3.91,0,0,1,.92-.15,10.05,10.05,0,0,1,2.54.05,10.35,10.35,0,0,1,1.72.38c.3.11.62.18.93.32l1,.44a13.83,13.83,0,0,1,3.65,2.85,20.73,20.73,0,0,1,4.1,7.25,18.62,18.62,0,0,1,.66,2.44A3.61,3.61,0,0,1,207,228.12Z" transform="translate(-47.49 -64.9)"/><path class="cls-6" d="M257.13,249.06s.41-.47,1.08-1.34a15.86,15.86,0,0,0,2.29-4,16.78,16.78,0,0,0,1.18-6.73,15.74,15.74,0,0,0-2.45-7.94,62.85,62.85,0,0,0-5.17-6.73,31.18,31.18,0,0,1-3.95-5.77,14.07,14.07,0,0,1-1.45-4.49,8.54,8.54,0,0,1-.08-1.29,1.25,1.25,0,0,1,0-.44s0,.61.24,1.7a14.94,14.94,0,0,0,1.57,4.36,31.72,31.72,0,0,0,4,5.64,57.81,57.81,0,0,1,5.24,6.77,15.88,15.88,0,0,1,2.48,8.18,16.57,16.57,0,0,1-1.31,6.87,14.74,14.74,0,0,1-2.46,4,10.61,10.61,0,0,1-.89.93A1.71,1.71,0,0,1,257.13,249.06Z" transform="translate(-47.49 -64.9)"/><g class="cls-11"><path d="M203.38,250.25a4.62,4.62,0,0,1,2.83-5.63,25.39,25.39,0,0,1,3.72-.48c.78-.13,1.65-.52,1.81-1.29.2-1-.81-1.73-1.71-2.12a15.8,15.8,0,0,0-11.67-.28,18.53,18.53,0,0,1,3.65,9.67" transform="translate(-47.49 -64.9)"/></g><g class="cls-11"><path d="M250.14,216c-1.59-3.2,4.18,5.76,6.87,8.1s5.53,4.56,7.76,7.35,3.88,5.87,3.57,9.42l-6.42-2.25s.81-5.19-2-9S250.78,217.3,250.14,216Z" transform="translate(-47.49 -64.9)"/></g><g class="cls-11"><path d="M186.21,248.31c-1.77-1.93-4.48-2.7-7.08-3a11,11,0,0,0-4.72.31,5.12,5.12,0,0,0-3.32,3.17,1.52,1.52,0,0,0,.12,1.38,1.31,1.31,0,0,0,1.46.34,5.1,5.1,0,0,0,1.37-.84A12.19,12.19,0,0,1,186,248.36" transform="translate(-47.49 -64.9)"/></g><path class="cls-6" d="M196.72,223.72a2.11,2.11,0,1,1-2.1-2.11A2.1,2.1,0,0,1,196.72,223.72Z" transform="translate(-47.49 -64.9)"/><path class="cls-6" d="M208.05,209.78a2.11,2.11,0,1,1-2.11-2.1A2.11,2.11,0,0,1,208.05,209.78Z" transform="translate(-47.49 -64.9)"/><path class="cls-6" d="M230.11,210.66a2.11,2.11,0,1,1-2.1-2.11A2.1,2.1,0,0,1,230.11,210.66Z" transform="translate(-47.49 -64.9)"/><path class="cls-6" d="M247.17,209.33a2.11,2.11,0,1,1-2.11-2.1A2.11,2.11,0,0,1,247.17,209.33Z" transform="translate(-47.49 -64.9)"/><path class="cls-6" d="M275.39,234.31a2.11,2.11,0,1,1-2.1-2.1A2.1,2.1,0,0,1,275.39,234.31Z" transform="translate(-47.49 -64.9)"/><path class="cls-6" d="M258.17,232.21a2.11,2.11,0,1,1-2.11-2.11A2.1,2.1,0,0,1,258.17,232.21Z" transform="translate(-47.49 -64.9)"/><path class="cls-6" d="M261.8,218.19a2.11,2.11,0,1,1-2.1-2.1A2.1,2.1,0,0,1,261.8,218.19Z" transform="translate(-47.49 -64.9)"/><circle class="cls-6" cx="237.99" cy="159.03" r="2.11"/><path class="cls-6" d="M302.19,225.82a2.11,2.11,0,1,1-2.1-2.1A2.1,2.1,0,0,1,302.19,225.82Z" transform="translate(-47.49 -64.9)"/><path class="cls-6" d="M249.36,248.37a2.11,2.11,0,1,1-2.11-2.11A2.1,2.1,0,0,1,249.36,248.37Z" transform="translate(-47.49 -64.9)"/><path class="cls-6" d="M257,260.33a2.11,2.11,0,1,1-2.11-2.11A2.1,2.1,0,0,1,257,260.33Z" transform="translate(-47.49 -64.9)"/><path class="cls-6" d="M241.29,268.37a2.11,2.11,0,1,1-2.1-2.11A2.11,2.11,0,0,1,241.29,268.37Z" transform="translate(-47.49 -64.9)"/><path class="cls-6" d="M231.1,281.61a2.11,2.11,0,1,1-2.1-2.11A2.1,2.1,0,0,1,231.1,281.61Z" transform="translate(-47.49 -64.9)"/><path class="cls-6" d="M256.06,279.37a2.11,2.11,0,1,1-2.1-2.11A2.1,2.1,0,0,1,256.06,279.37Z" transform="translate(-47.49 -64.9)"/><path class="cls-6" d="M215.22,291.27a2.11,2.11,0,1,1-2.1-2.1A2.1,2.1,0,0,1,215.22,291.27Z" transform="translate(-47.49 -64.9)"/><path class="cls-6" d="M224,258.22a2.11,2.11,0,1,1-2.1-2.1A2.11,2.11,0,0,1,224,258.22Z" transform="translate(-47.49 -64.9)"/><path class="cls-6" d="M216.92,273.59a2.11,2.11,0,1,1-2.11-2.1A2.11,2.11,0,0,1,216.92,273.59Z" transform="translate(-47.49 -64.9)"/><path class="cls-6" d="M242.62,226.63a2.11,2.11,0,1,1-2.1-2.1A2.1,2.1,0,0,1,242.62,226.63Z" transform="translate(-47.49 -64.9)"/><path class="cls-6" d="M229.49,243.45a2.11,2.11,0,1,1-2.11-2.11A2.1,2.1,0,0,1,229.49,243.45Z" transform="translate(-47.49 -64.9)"/><path class="cls-6" d="M216.92,230.1a2.11,2.11,0,1,1-2.11-2.1A2.11,2.11,0,0,1,216.92,230.1Z" transform="translate(-47.49 -64.9)"/><path class="cls-6" d="M165,262.7a2.11,2.11,0,1,1-2.11-2.11A2.11,2.11,0,0,1,165,262.7Z" transform="translate(-47.49 -64.9)"/><path class="cls-6" d="M174.76,236.05a2.11,2.11,0,1,1-2.1-2.11A2.1,2.1,0,0,1,174.76,236.05Z" transform="translate(-47.49 -64.9)"/><path class="cls-6" d="M193.48,265.68a2.11,2.11,0,1,1-2.11-2.11A2.11,2.11,0,0,1,193.48,265.68Z" transform="translate(-47.49 -64.9)"/><path class="cls-6" d="M206.31,255.84a2.11,2.11,0,1,1-2.1-2.11A2.1,2.1,0,0,1,206.31,255.84Z" transform="translate(-47.49 -64.9)"/><path class="cls-6" d="M180.7,253.55a2.11,2.11,0,1,1-2.1-2.1A2.11,2.11,0,0,1,180.7,253.55Z" transform="translate(-47.49 -64.9)"/><path class="cls-6" d="M191.65,239.63a2.11,2.11,0,1,1-2.1-2.1A2.1,2.1,0,0,1,191.65,239.63Z" transform="translate(-47.49 -64.9)"/><path class="cls-3" d="M182.78,361.19a60.52,60.52,0,0,1-12.93-1.4c-8.82-1.94-15.73-4.79-21-8.69a67,67,0,0,1-20.45,3.72c-22.68.61-43.21-6.48-68.38-26.86q-1.9-4.06-3.66-8.59c24.23,19.61,50.46,31.05,71.91,30.47a62.08,62.08,0,0,0,16.21-2.56c-5.85-6.09-8.8-14.06-8.76-23.74,0-10.62,4.56-15.43,8.34-17.59,5.35-3.06,12.67-2.64,19.09,1.1,7.08,4.12,11.29,11.11,11.26,18.68a20.53,20.53,0,0,1-8.08,16,61.52,61.52,0,0,1-11.89,7.14,55.36,55.36,0,0,0,16.52,6.08,55.92,55.92,0,0,0,23.05.18c21.31-4.23,39.11-11.79,52.9-22.47a85.94,85.94,0,0,0,33.52-70.77v-.09c-1.23-24.65-15.62-48.73-36.68-61.35-18.26-10.95-41.66-13.95-65.88-8.45-15.05,3.42-35.53,11.54-47.6,30.77-13,20.71-9.48,46.43,1.25,58.37,7.65,8.53,22.31,5.46,34.1,3l3.88-.8c12.67-2.52,64.08-26.63,64.28-26.7l1.09,4.09c-.83.29-51.38,24.9-64.4,27.49l-3.83.79c-13,2.73-29.26,6.13-38.83-4.53-6.92-7.71-10.77-18.85-10.84-31.36a63,63,0,0,1,9.08-33c13-20.68,34.75-29.34,50.72-33,25.47-5.79,50.17-2.58,69.54,9,22.43,13.44,37.77,39.08,39.09,65.33.11,1.35,1.45,20.46-8.78,42.1a90.2,90.2,0,0,1-26.66,33c-14.41,11.16-32.9,19-55,23.42A62.06,62.06,0,0,1,182.78,361.19Zm-30.71-52.31a11.19,11.19,0,0,0-5.58,1.39c-3.79,2.17-5.8,6.77-5.83,13.29,0,9.32,2.89,16.54,9,21.89a56.78,56.78,0,0,0,13.56-7.69,15.56,15.56,0,0,0,6.15-12.05c0-5.77-3.26-11.14-8.79-14.36A17.23,17.23,0,0,0,152.07,308.88Z" transform="translate(-47.49 -64.9)"/><path class="cls-6" d="M152.83,353.68a5.88,5.88,0,0,1-1.87-.9,35.17,35.17,0,0,1-4.05-3,31.49,31.49,0,0,1-3.61-3.5,5.41,5.41,0,0,1-1.17-1.73c.06,0,.53.59,1.43,1.49s2.18,2.1,3.66,3.36,2.89,2.32,3.93,3.05A18.5,18.5,0,0,1,152.83,353.68Z" transform="translate(-47.49 -64.9)"/><path class="cls-6" d="M158.07,350.77a6.32,6.32,0,0,1-2.25-.57,19.3,19.3,0,0,1-4.8-2.88,23.91,23.91,0,0,1-3.91-4,7.17,7.17,0,0,1-1.22-2c.06,0,.56.68,1.49,1.75a30.51,30.51,0,0,0,4,3.83,23.78,23.78,0,0,0,4.63,2.94C157.23,350.47,158.09,350.68,158.07,350.77Z" transform="translate(-47.49 -64.9)"/><path class="cls-5" d="M138.11,333.53s-.15-.27-.32-.81a22.41,22.41,0,0,1-.58-2.29,29.87,29.87,0,0,1-.48-7.79A29.38,29.38,0,0,1,138.3,315a20,20,0,0,1,.89-2.19,2.66,2.66,0,0,1,.42-.76c.08,0-.41,1.16-1,3.06a33.82,33.82,0,0,0-1.07,15.27C137.86,332.32,138.19,333.51,138.11,333.53Z" transform="translate(-47.49 -64.9)"/><path class="cls-5" d="M125.66,351.44a9.45,9.45,0,0,1-2.41.41,26.29,26.29,0,0,1-5.9-.16,25.92,25.92,0,0,1-5.71-1.49,8.56,8.56,0,0,1-2.2-1.07,20.45,20.45,0,0,1,2.32.75,33.12,33.12,0,0,0,11.47,1.63A17.85,17.85,0,0,1,125.66,351.44Z" transform="translate(-47.49 -64.9)"/><path class="cls-5" d="M263.53,318.3a12.38,12.38,0,0,1-1.46,2.18,53.38,53.38,0,0,1-8.82,9,11.94,11.94,0,0,1-2.14,1.52,16.55,16.55,0,0,1,1.92-1.78c1.2-1.08,2.83-2.58,4.55-4.34s3.18-3.43,4.22-4.66A17,17,0,0,1,263.53,318.3Z" transform="translate(-47.49 -64.9)"/><path class="cls-5" d="M120.9,267.35a6.4,6.4,0,0,1-.51-1.33,34.77,34.77,0,0,1-1-3.72,49.41,49.41,0,0,1-1-5.67,51.13,51.13,0,0,1,.37-14A49,49,0,0,1,120,237a37.09,37.09,0,0,1,1.25-3.66,6.46,6.46,0,0,1,.58-1.3,9.4,9.4,0,0,1-.4,1.36c-.3.86-.68,2.12-1.09,3.7a53.15,53.15,0,0,0-1.17,5.58,62.44,62.44,0,0,0-.63,7,57.38,57.38,0,0,0,.27,7,53.4,53.4,0,0,0,.87,5.64c.33,1.59.64,2.87.89,3.75A8.58,8.58,0,0,1,120.9,267.35Z" transform="translate(-47.49 -64.9)"/><path class="cls-5" d="M126.94,222.47a17.3,17.3,0,0,1-2.86,5.09,9,9,0,0,1,1.22-2.67A9.12,9.12,0,0,1,126.94,222.47Z" transform="translate(-47.49 -64.9)"/><path class="cls-6" d="M248,178.37c-1.19,1.89-.17,4.4,1.16,6.2s3,3.53,3.3,5.76c.35,3-2.23,5.71-5,6.95a5.41,5.41,0,0,0-2.36,1.48c-.78,1.08-.46,2.55-.49,3.88a6.47,6.47,0,0,1-3.32,5.58,5.39,5.39,0,0,1-6.27-1,7.68,7.68,0,0,1-1.62-3.6,16.34,16.34,0,0,1,3.57-14.17c1.69-1.87,3.82-3.27,5.67-5s3.46-3.89,3.62-6.4" transform="translate(-47.49 -64.9)"/><path class="cls-6" d="M247.66,155.6c-1.39-3.58-5-5.78-8.66-7a24.5,24.5,0,0,0-16.25-.35c-7.62,2.75-12.74,9.85-16.68,16.94-1.71,3.08-3.63,6.52-7,7.54-1.8.55-3.73.3-5.6.5a11.5,11.5,0,0,0-7.48,4c-2.24,2.72-3.4,6.62-6.62,8.05-2.08.92-4.47.53-6.74.6-4.73.15-9.71,3-10.75,7.61-.69,3,.35,6.38-1,9.14-.5,1-1.3,1.83-1.78,2.85A5.19,5.19,0,0,0,166.6,212a13.58,13.58,0,0,1,2.07-1.42c1.64-.69,3.51.22,4.94,1.28s2.84,2.36,4.61,2.56c3.62.41,6.43-3.94,10.07-3.71,2,.13,3.65,1.66,5.4,2.71,3.06,1.85,4.6.19,7.19-2.26s4,7.88,10,5.18c5.58-2.51.06-12.07,2.1-11.84s7.4-.12,8.54-1.83" transform="translate(-47.49 -64.9)"/><path class="cls-6" d="M248.36,166.24a13.58,13.58,0,0,0-1.58-12.31,17.8,17.8,0,0,0-7.64-5.83,19.18,19.18,0,0,0-12.75-1.18c-4.18,1.23-7.85,4.57-8.78,8.82-.42,1.93-.3,4-1.14,5.8a4.31,4.31,0,0,0-.78,2.41,2,2,0,0,0,1.6,1.53,4.59,4.59,0,0,0,2.32-.19,24.65,24.65,0,0,0,7-3.89" transform="translate(-47.49 -64.9)"/><path class="cls-13" d="M234.45,204c.47-3.68.64-5.2.64-5.16s7.93-.41,10.69-10.39c1.38-5,2.06-13.27,2.41-20.08.3-6.14-2.89-14.07-9-14.12l-19.5,2.64a3.6,3.6,0,0,0-3.61,3.26L213,204.52s8.8,10.42,16.44,9S234.45,204,234.45,204Z" transform="translate(-47.49 -64.9)"/><path class="cls-6" d="M244.93,175.16a1.3,1.3,0,0,1-1.4,1.17,1.24,1.24,0,0,1-1.21-1.32,1.31,1.31,0,0,1,1.4-1.18A1.26,1.26,0,0,1,244.93,175.16Z" transform="translate(-47.49 -64.9)"/><path class="cls-6" d="M245.9,172.43c-.18.15-1.08-.69-2.49-.85s-2.51.43-2.64.24.14-.37.62-.64a3.59,3.59,0,0,1,2.14-.41,3.45,3.45,0,0,1,1.95.89C245.88,172,246,172.36,245.9,172.43Z" transform="translate(-47.49 -64.9)"/><path class="cls-6" d="M232.13,173.84a1.32,1.32,0,0,1-1.41,1.17,1.26,1.26,0,0,1-1.21-1.33,1.32,1.32,0,0,1,1.41-1.17A1.26,1.26,0,0,1,232.13,173.84Z" transform="translate(-47.49 -64.9)"/><path class="cls-6" d="M232.09,171.13c-.18.15-1.08-.69-2.48-.85s-2.51.43-2.65.24.14-.37.62-.64a3.59,3.59,0,0,1,2.14-.41,3.52,3.52,0,0,1,2,.89C232.07,170.74,232.18,171.06,232.09,171.13Z" transform="translate(-47.49 -64.9)"/><path class="cls-6" d="M236,182.1a9.39,9.39,0,0,1,2.32-.15c.37,0,.71,0,.8-.27a1.84,1.84,0,0,0-.12-1.09l-.75-2.84a47.75,47.75,0,0,1-1.57-7.4c.17,0,1.13,3.21,2.16,7.26.25,1,.48,1.94.71,2.85a2.06,2.06,0,0,1,0,1.43.88.88,0,0,1-.64.45,2.21,2.21,0,0,1-.62,0A9.52,9.52,0,0,1,236,182.1Z" transform="translate(-47.49 -64.9)"/><path class="cls-14" d="M235.09,198.8a26,26,0,0,1-13.19-5.17s2.62,7.41,12.89,7.62Z" transform="translate(-47.49 -64.9)"/><path class="cls-14" d="M235,185.41a2.52,2.52,0,0,0-2.15-1.19,2.29,2.29,0,0,0-1.69.67,1.45,1.45,0,0,0-.3,1.66,1.69,1.69,0,0,0,1.78.67,5.31,5.31,0,0,0,1.91-.86A1.65,1.65,0,0,0,235,186a.49.49,0,0,0,.06-.53" transform="translate(-47.49 -64.9)"/><path class="cls-6" d="M232.76,166c-.18.37-1.56,0-3.22,0s-3,.31-3.23-.06c-.08-.17.19-.51.77-.81a5.23,5.23,0,0,1,2.46-.56,5.35,5.35,0,0,1,2.46.57C232.57,165.53,232.84,165.87,232.76,166Z" transform="translate(-47.49 -64.9)"/><path class="cls-6" d="M246.19,166.26c-.28.29-1.21-.15-2.37-.3s-2.17,0-2.36-.39c-.08-.17.11-.47.58-.73a3.33,3.33,0,0,1,2-.3,3.24,3.24,0,0,1,1.82.86C246.22,165.77,246.32,166.11,246.19,166.26Z" transform="translate(-47.49 -64.9)"/><path class="cls-13" d="M217,177.45c.08-.75-.59-2.64-1.32-2.84-2-.53-5.58-.78-6.18,4.28-.84,6.92,6.28,6.33,6.32,6.13S216.71,180.07,217,177.45Z" transform="translate(-47.49 -64.9)"/><path class="cls-14" d="M214,182.14s-.13.07-.35.14a1.19,1.19,0,0,1-.9-.09,3,3,0,0,1-1.06-2.84,3.93,3.93,0,0,1,.55-1.68,1.38,1.38,0,0,1,1-.82.62.62,0,0,1,.67.42c.07.2,0,.33,0,.35s.16-.1.14-.39a.75.75,0,0,0-.22-.47.91.91,0,0,0-.64-.25,1.69,1.69,0,0,0-1.39.92,4.05,4.05,0,0,0-.65,1.88c-.12,1.4.43,2.79,1.4,3.2a1.3,1.3,0,0,0,1.12-.06C214,182.31,214,182.16,214,182.14Z" transform="translate(-47.49 -64.9)"/><path class="cls-6" d="M240.25,153.12a9.54,9.54,0,0,1-7.11,6.65c-1.79.36-3.9.31-5.07,1.7s-.79,3.71-1.92,5.19c-1.57,2.05-5.27,1.6-6.52,3.86-.54,1-.42,2.24-1,3.22a3.22,3.22,0,0,1-4,1.12,5.14,5.14,0,0,1-2.73-3.4,14,14,0,0,1-.33-4.47,24.78,24.78,0,0,1,1.55-8.68c2.42-5.7,11.71-13,17.82-12" transform="translate(-47.49 -64.9)"/><path class="cls-6" d="M247.22,180.43c1.58-1.87,3.08-4,4.67-5.83s3.05-3.68,3.24-6a9.64,9.64,0,0,0-1.69-5.51,69.38,69.38,0,0,0-6.59-9,8.78,8.78,0,0,0-1.9-1.9,4.5,4.5,0,0,0-2.09-.71,2.57,2.57,0,0,0-1.74.42,1.4,1.4,0,0,0-.51,1.62,2.63,2.63,0,0,0,1.32,1,11.71,11.71,0,0,1,5.55,7.61c.82,3.13.59,6.16.52,9.39-.06,2.53-.4,5.22-.66,7.55" transform="translate(-47.49 -64.9)"/><path class="cls-6" d="M231,146.51a21,21,0,0,0-19.19,8.08c-2.41,3.24-4.19,7.47-8,8.82-3.11,1.12-6.6-.12-9.86.45a9.13,9.13,0,0,0-6.69,5.31c-.93,2.18-1,4.8-2.67,6.52-2.14,2.27-6,2-8.23,4.25-1.8,1.83-1.86,4.8-1.14,7.27a4.06,4.06,0,0,0,1.7,2.61,4.11,4.11,0,0,0,2.73.21,30.44,30.44,0,0,0,8.92-3.53c6.37-3.42,12.5-7.27,18.63-11.11a37.82,37.82,0,0,0,8-6.07c3-3.25,4.75-7.43,6.85-11.33s4.79-7.78,8.81-9.63" transform="translate(-47.49 -64.9)"/><path class="cls-9" d="M162.3,212.45a1.07,1.07,0,0,1-.28-.08,3.68,3.68,0,0,1-.77-.39,4.92,4.92,0,0,1-1.89-2.64,6.15,6.15,0,0,1,.61-5.07,10.42,10.42,0,0,1,5.43-4.13,52.46,52.46,0,0,1,8.12-1.78,19.75,19.75,0,0,0,4.36-1.35,8.74,8.74,0,0,0,5.5-7.55,38.41,38.41,0,0,1,.9-5.32,13.64,13.64,0,0,1,7.36-8.39,12.89,12.89,0,0,1,5.66-1.22c1.91,0,3.76.33,5.56.46a12.52,12.52,0,0,0,5.2-.55,6.43,6.43,0,0,0,2.15-1.29,7.63,7.63,0,0,0,1.47-2c.79-1.45,1.31-3,2.17-4.41a11.07,11.07,0,0,1,3.31-3.3,26.78,26.78,0,0,1,7.75-3,47.21,47.21,0,0,0,6.54-2,16.15,16.15,0,0,0,4.42-2.57,9.58,9.58,0,0,0,2.07-2.46c.37-.65.51-1,.54-1a6.8,6.8,0,0,1-.45,1,9.15,9.15,0,0,1-2,2.56,16.12,16.12,0,0,1-4.44,2.68,46.42,46.42,0,0,1-6.55,2,26.73,26.73,0,0,0-7.61,3,10.49,10.49,0,0,0-3.17,3.19c-.83,1.32-1.33,2.89-2.14,4.39a7.66,7.66,0,0,1-1.56,2.09,7,7,0,0,1-2.29,1.39,12.92,12.92,0,0,1-5.4.59c-1.84-.13-3.67-.44-5.53-.45a12.44,12.44,0,0,0-5.45,1.17,13.2,13.2,0,0,0-7.11,8.09,39.19,39.19,0,0,0-.9,5.25,10.4,10.4,0,0,1-1.83,4.88,10.28,10.28,0,0,1-3.95,3,19.49,19.49,0,0,1-4.46,1.36,52.51,52.51,0,0,0-8.08,1.7,10.22,10.22,0,0,0-5.31,3.95,6,6,0,0,0-.67,4.87,4.93,4.93,0,0,0,1.77,2.62A8.23,8.23,0,0,0,162.3,212.45Z" transform="translate(-47.49 -64.9)"/><path class="cls-9" d="M162.92,191.21a2.82,2.82,0,0,1,.7-.69,4.86,4.86,0,0,1,2.67-.83,13.06,13.06,0,0,1,4.38.75,18.68,18.68,0,0,0,2.67.61,5.87,5.87,0,0,0,3-.3,6.17,6.17,0,0,0,2.56-2,11.53,11.53,0,0,0,1.66-3.22c.43-1.19.76-2.47,1.21-3.77a25.28,25.28,0,0,1,1.73-3.86,14.57,14.57,0,0,1,6.35-6.39,11.4,11.4,0,0,1,4.73-1c1.63-.06,3.26.05,4.89-.1a7.19,7.19,0,0,0,4.34-1.72,12.71,12.71,0,0,0,2.59-3.86,19.77,19.77,0,0,1,2.38-4,11.16,11.16,0,0,1,3.53-2.74,22,22,0,0,1,7.94-2c2.55-.24,4.93-.34,7.07-.65a18.78,18.78,0,0,0,5.57-1.57,12.2,12.2,0,0,0,3.57-2.51A8.52,8.52,0,0,0,238,149c.28-.57.39-.89.41-.88a4.63,4.63,0,0,1-.32.92,8.35,8.35,0,0,1-1.54,2.35,12.19,12.19,0,0,1-3.59,2.63,18.83,18.83,0,0,1-5.64,1.67c-2.16.33-4.55.45-7.08.71a21.82,21.82,0,0,0-7.77,2,10.88,10.88,0,0,0-3.38,2.64A19.56,19.56,0,0,0,206.8,165a13.17,13.17,0,0,1-2.69,4,7.61,7.61,0,0,1-4.62,1.85c-1.69.16-3.33,0-4.93.1a11,11,0,0,0-4.54.94,14.23,14.23,0,0,0-6.16,6.17,25.53,25.53,0,0,0-1.71,3.79c-.46,1.26-.79,2.55-1.24,3.76-.83,2.41-2.33,4.61-4.47,5.44a6.12,6.12,0,0,1-3.14.29,17.78,17.78,0,0,1-2.7-.66,13.31,13.31,0,0,0-4.3-.81,4.87,4.87,0,0,0-2.63.71A8.42,8.42,0,0,0,162.92,191.21Z" transform="translate(-47.49 -64.9)"/><path class="cls-9" d="M193.35,212.21s.16,0,.42-.19a1.77,1.77,0,0,0,.78-1,2.17,2.17,0,0,0-.32-1.95,5.25,5.25,0,0,0-2.17-1.66,10.88,10.88,0,0,1-3-1.76,6,6,0,0,1-1.68-3.68,7.61,7.61,0,0,1,.9-4.37,9.84,9.84,0,0,1,3.33-3.43,23.15,23.15,0,0,1,8.66-2.92,36.42,36.42,0,0,0,7.16-1.79,12.84,12.84,0,0,0,4.19-2.6c.85-.81,1.19-1.38,1.23-1.35s-.06.15-.23.42a8.26,8.26,0,0,1-.86,1.07,12.38,12.38,0,0,1-4.19,2.78,34,34,0,0,1-7.21,1.91c-2.73.54-5.8,1.15-8.48,2.89a9.58,9.58,0,0,0-3.18,3.25,7.25,7.25,0,0,0-.87,4.1,5.61,5.61,0,0,0,1.52,3.43,10.76,10.76,0,0,0,2.9,1.73,5.49,5.49,0,0,1,2.25,1.83,2.38,2.38,0,0,1,.27,2.17,1.85,1.85,0,0,1-.91,1A.91.91,0,0,1,193.35,212.21Z" transform="translate(-47.49 -64.9)"/><path class="cls-13" d="M205.91,264.44s-1.15-1.25-.77-2.4,1.06-2,1.35-1.93.19-6.25,1.35-6.73a15.37,15.37,0,0,1,2.5-.77s1.35-3.47,2.12-3.37,9.33,1.63,9.33,1.63,6.74,7.22,6.35,7.9-.77,1.44-1.83,1.05a11.24,11.24,0,0,1-2.07-1.06l3.59,3.94s-.69,3-3.63.88l1.44,1.83s-.87,3.75-5.1.57l-4.33-2.6h-2.79l6.35,3.88s.67,1.91-1.25,1.91-6.76-2.57-6.76-2.57-2.88,1.71-3.85,1.71-1.23-1.08-1.23-1.08Z" transform="translate(-47.49 -64.9)"/><path class="cls-14" d="M224.36,263.78a15.33,15.33,0,0,1-1.49-1.27,33.67,33.67,0,0,1-3.52-3.2,3,3,0,0,0-2.16-1,14.63,14.63,0,0,0-2.09.13,3.8,3.8,0,0,1-2-.09c0-.07.75,0,1.93-.25a11.45,11.45,0,0,1,2.16-.24,3.66,3.66,0,0,1,1.31.25,3.58,3.58,0,0,1,1.18.82c1.23,1.39,2.53,2.42,3.4,3.29A5.29,5.29,0,0,1,224.36,263.78Z" transform="translate(-47.49 -64.9)"/><path class="cls-14" d="M227.83,262.7a13.4,13.4,0,0,1-1.75-1.72c-1.05-1.09-2.5-2.58-4.14-4.19-.83-.79-1.6-1.61-2.35-2.2a4.42,4.42,0,0,0-2.35-.85c-1.48-.1-2.42,0-2.43,0s.23-.1.64-.17a9.25,9.25,0,0,1,1.81-.14,4.6,4.6,0,0,1,2.6.84,30,30,0,0,1,2.43,2.2c1.65,1.62,3.06,3.17,4,4.32A10.41,10.41,0,0,1,227.83,262.7Z" transform="translate(-47.49 -64.9)"/><path class="cls-6" d="M230.87,183.36c.26-.1.85.82,1.76,1.73s1.81,1.54,1.7,1.8-1.34,0-2.4-1.11S230.62,183.44,230.87,183.36Z" transform="translate(-47.49 -64.9)"/><path class="cls-3" d="M304.68,263.54l-8.89-45.69a3.43,3.43,0,0,0-6.73,1.31l.41,2.07-18.39,4.53a12.26,12.26,0,0,0-8.59,7.66l-11.09,2.73a7.18,7.18,0,0,0-5.25,8.67l1,4.05-10.85,2.67A5.62,5.62,0,1,0,239,262.45l10.86-2.67.77,3.14a7.15,7.15,0,0,0,8.67,5.24l11.29-2.78,0-.08a12.26,12.26,0,0,0,10.89,2.58l16.32-4,.19,1a3.43,3.43,0,0,0,6.73-1.31Z" transform="translate(-47.49 -64.9)"/><path class="cls-6" d="M304.68,263.54a2.59,2.59,0,0,1,.09.77,3.39,3.39,0,0,1-.78,2.12,3.49,3.49,0,0,1-3.38,1.2,3.57,3.57,0,0,1-2-1.22,3.51,3.51,0,0,1-.63-1.16c-.13-.45-.19-.89-.29-1.36l.13.09-12,3-3.59.89a14.26,14.26,0,0,1-3.91.55,12.44,12.44,0,0,1-7.88-3l.3-.19,0,.09.05.18-.19.05c-3.81.92-7.8,2-12.09,2.94a7.35,7.35,0,0,1-6.27-2.2,7.2,7.2,0,0,1-1.77-3.05c-.31-1.14-.57-2.27-.86-3.43l.27.17-9.15,2.26c-.79.18-1.54.42-2.39.54a5.85,5.85,0,0,1-5.77-8.76,6.11,6.11,0,0,1,4.29-2.89l10.22-2.52-.18.3c-.2-.83-.41-1.69-.63-2.57a16.49,16.49,0,0,1-.55-2.73,7.41,7.41,0,0,1,3.84-7,10.14,10.14,0,0,1,2.6-.89l10.26-2.52-.16.15a12.66,12.66,0,0,1,5.17-6.32,13.05,13.05,0,0,1,3.74-1.53l3.8-.93L289.42,221l-.16.25c-.11-.54-.21-1.08-.32-1.62a4.58,4.58,0,0,1-.11-1.7,3.63,3.63,0,0,1,7.12-.28c.77,4,1.5,7.76,2.19,11.31l3.53,18.43c1,5.11,1.73,9.13,2.26,11.9.25,1.36.44,2.42.57,3.15.06.34.11.61.14.81a1.41,1.41,0,0,1,0,.27,1.23,1.23,0,0,1-.07-.27c0-.19-.1-.46-.17-.8-.15-.73-.37-1.77-.65-3.13-.55-2.76-1.35-6.78-2.37-11.88s-2.23-11.32-3.63-18.41q-1.05-5.33-2.23-11.29a3.21,3.21,0,0,0-6.3.26,3.92,3.92,0,0,0,.1,1.55c.11.54.22,1.08.32,1.62l0,.2-.2.05L275.09,225c-2.49.69-5.17,1-7.4,2.42a12.14,12.14,0,0,0-5,6.08l-.05.12-.12,0-10.26,2.52a9.22,9.22,0,0,0-2.48.86,6.66,6.66,0,0,0-2,1.65,6.87,6.87,0,0,0-1.58,4.91,15.47,15.47,0,0,0,.54,2.64c.21.88.43,1.74.63,2.57l.06.24-.24.06L237,251.62a5.64,5.64,0,0,0-4,2.66,5.37,5.37,0,0,0,3,7.83,5.48,5.48,0,0,0,2.31.23c.76-.11,1.56-.36,2.34-.53l9.15-2.25.22-.05.05.22c.29,1.14.55,2.3.85,3.41a6.78,6.78,0,0,0,1.66,2.87,7,7,0,0,0,5.9,2.09c4.21-.94,8.27-2,12.06-2.9l-.13.23,0-.09-.14-.56.44.38a12.14,12.14,0,0,0,7.65,2.9,13.81,13.81,0,0,0,3.82-.51l3.59-.88,12-2.91.11,0,0,.11c.1.46.16.93.28,1.34a3.22,3.22,0,0,0,.58,1.1,3.41,3.41,0,0,0,1.91,1.18,3.37,3.37,0,0,0,3.26-1.11,3.44,3.44,0,0,0,.81-2.05A7.52,7.52,0,0,0,304.68,263.54Z" transform="translate(-47.49 -64.9)"/><path class="cls-6" d="M298.16,263.79c-.13,0-2.27-9.46-4.78-21.19s-4.45-21.26-4.31-21.29,2.27,9.46,4.79,21.19S298.3,263.76,298.16,263.79Z" transform="translate(-47.49 -64.9)"/><path class="cls-6" d="M270.55,265.3c-.13,0-2-7.09-4.26-15.91s-3.91-16-3.78-16,2,7.09,4.26,15.91S270.68,265.27,270.55,265.3Z" transform="translate(-47.49 -64.9)"/><path class="cls-6" d="M249.84,259.78a24.31,24.31,0,0,1-1.59-5.4,46.61,46.61,0,0,1-1.1-5.51,24.64,24.64,0,0,1,1.58,5.4A48,48,0,0,1,249.84,259.78Z" transform="translate(-47.49 -64.9)"/><path class="cls-5" d="M259.7,236.05a25.46,25.46,0,0,1-2.79.59c-.86.19-1.88.42-3,.72a15.65,15.65,0,0,0-3.46,1.37,4.76,4.76,0,0,0-2.43,2.55,7.35,7.35,0,0,0-.06,3c.22,1.74.51,2.79.44,2.81a9,9,0,0,1-.79-2.76,7.4,7.4,0,0,1,0-3.16,3.68,3.68,0,0,1,1-1.65,8.58,8.58,0,0,1,1.63-1.2,14.48,14.48,0,0,1,3.58-1.37c1.14-.29,2.18-.49,3-.63A12.27,12.27,0,0,1,259.7,236.05Z" transform="translate(-47.49 -64.9)"/><path class="cls-5" d="M286,223.93a4,4,0,0,1-.95.28c-.61.16-1.51.36-2.62.6l-8.66,1.82a18.33,18.33,0,0,0-4.52,1.59,9.43,9.43,0,0,0-3,2.46,8.17,8.17,0,0,0-1.49,3.25,2.22,2.22,0,0,1,.07-1,6.78,6.78,0,0,1,1.14-2.47,9.28,9.28,0,0,1,3.05-2.65,18,18,0,0,1,4.63-1.67c3.4-.72,6.47-1.27,8.71-1.68,1.11-.2,2-.35,2.65-.44A3.27,3.27,0,0,1,286,223.93Z" transform="translate(-47.49 -64.9)"/><path class="cls-5" d="M245.25,251.36a5,5,0,0,1-1.93.77c-1.25.33-3,.48-4.89.87a10.14,10.14,0,0,0-2.51.88,6.16,6.16,0,0,0-1.71,1.31,9.36,9.36,0,0,0-1.09,1.69,3.13,3.13,0,0,1,.82-1.92,6.18,6.18,0,0,1,1.76-1.48,9.67,9.67,0,0,1,2.62-1c1.93-.41,3.69-.49,4.92-.73S245.22,251.29,245.25,251.36Z" transform="translate(-47.49 -64.9)"/><path class="cls-5" d="M293.49,216.14c0,.08-.37.07-.9.22a3.35,3.35,0,0,0-2.54,3c-.06.55,0,.9-.07.92s-.25-.32-.28-.93a3.22,3.22,0,0,1,.76-2.21,3.26,3.26,0,0,1,2.07-1.11C293.14,216,293.5,216.09,293.49,216.14Z" transform="translate(-47.49 -64.9)"/></g><g id="_404_Error" data-name="404 Error"><path class="cls-6" d="M296.22,137.46c0,3.61-2.61,5.79-6.93,5.79h-4.56v5.36h-1.79v-17h6.35C293.61,131.64,296.22,133.82,296.22,137.46Zm-1.79,0c0-2.72-1.79-4.27-5.19-4.27h-4.51v8.49h4.51C292.64,141.68,294.43,140.12,294.43,137.46Z" transform="translate(-47.49 -64.9)"/><path class="cls-6" d="M309.24,140.71v7.9h-1.65v-2a4.77,4.77,0,0,1-4.38,2.11c-2.89,0-4.66-1.5-4.66-3.71,0-2,1.26-3.61,4.92-3.61h4v-.78c0-2.18-1.23-3.37-3.61-3.37a6.44,6.44,0,0,0-4.24,1.51l-.78-1.29a8.12,8.12,0,0,1,5.19-1.72C307.38,135.76,309.24,137.41,309.24,140.71Zm-1.72,4.07v-2.09h-4c-2.47,0-3.27,1-3.27,2.28,0,1.48,1.19,2.4,3.22,2.4A4.08,4.08,0,0,0,307.52,144.78Z" transform="translate(-47.49 -64.9)"/><path class="cls-6" d="M325.78,135.86v11.2c0,4.39-2.16,6.37-6.38,6.37a8.88,8.88,0,0,1-5.94-2l.87-1.31a7.62,7.62,0,0,0,5,1.75c3.23,0,4.71-1.48,4.71-4.63v-1.63a5.73,5.73,0,0,1-5,2.47,6.18,6.18,0,1,1,0-12.36,5.75,5.75,0,0,1,5,2.55v-2.45Zm-1.68,6.06a4.84,4.84,0,1,0-4.84,4.68A4.55,4.55,0,0,0,324.1,141.92Z" transform="translate(-47.49 -64.9)"/><path class="cls-6" d="M341.7,142.77H331a4.71,4.71,0,0,0,5,4.43,5,5,0,0,0,3.91-1.67l1,1.12a6.75,6.75,0,0,1-11.62-4.42,6.15,6.15,0,0,1,6.24-6.47c3.58,0,6.18,2.64,6.18,6.47C341.73,142.38,341.7,142.57,341.7,142.77ZM331,141.48h9a4.53,4.53,0,0,0-9,0Z" transform="translate(-47.49 -64.9)"/><path class="cls-6" d="M363.33,141.22v7.39h-1.72v-7.23c0-2.69-1.41-4.07-3.83-4.07-2.74,0-4.47,1.7-4.47,4.61v6.69h-1.72V135.86h1.65v2.35a5.36,5.36,0,0,1,4.85-2.45C361.19,135.76,363.33,137.55,363.33,141.22Z" transform="translate(-47.49 -64.9)"/><path class="cls-6" d="M366.77,142.23a6.49,6.49,0,1,1,6.5,6.5A6.27,6.27,0,0,1,366.77,142.23Zm11.22,0a4.75,4.75,0,1,0-4.72,5A4.65,4.65,0,0,0,378,142.23Z" transform="translate(-47.49 -64.9)"/><path class="cls-6" d="M390,147.83a4.09,4.09,0,0,1-2.69.9,3.38,3.38,0,0,1-3.74-3.71v-7.71h-2.27v-1.45h2.27v-2.79h1.73v2.79h3.87v1.45h-3.87v7.61a2,2,0,0,0,2.2,2.33,2.85,2.85,0,0,0,1.89-.65Z" transform="translate(-47.49 -64.9)"/><path class="cls-6" d="M401.41,134.35v1.51h3.93v1.45h-3.88v11.3h-1.72v-11.3h-2.28v-1.45h2.28v-1.58a3.51,3.51,0,0,1,3.85-3.78,4.06,4.06,0,0,1,2.55.8l-.58,1.28a3,3,0,0,0-1.89-.63C402.19,132,401.41,132.78,401.41,134.35Z" transform="translate(-47.49 -64.9)"/><path class="cls-6" d="M406.16,142.23a6.49,6.49,0,1,1,6.5,6.5A6.28,6.28,0,0,1,406.16,142.23Zm11.23,0a4.75,4.75,0,1,0-4.73,5A4.66,4.66,0,0,0,417.39,142.23Z" transform="translate(-47.49 -64.9)"/><path class="cls-6" d="M434.14,135.86v12.75h-1.65v-2.33a5.08,5.08,0,0,1-4.58,2.45c-3.25,0-5.38-1.82-5.38-5.48v-7.39h1.72v7.22c0,2.72,1.4,4.1,3.83,4.1,2.66,0,4.34-1.72,4.34-4.63v-6.69Z" transform="translate(-47.49 -64.9)"/><path class="cls-6" d="M450.7,141.22v7.39H449v-7.23c0-2.69-1.41-4.07-3.84-4.07-2.73,0-4.46,1.7-4.46,4.61v6.69H439V135.86h1.65v2.35a5.36,5.36,0,0,1,4.85-2.45C448.56,135.76,450.7,137.55,450.7,141.22Z" transform="translate(-47.49 -64.9)"/><path class="cls-6" d="M467.06,130.62v18h-1.65v-2.52a5.52,5.52,0,0,1-4.92,2.64,6.49,6.49,0,0,1,0-13,5.57,5.57,0,0,1,4.85,2.52v-7.66Zm-1.7,11.61a4.75,4.75,0,1,0-4.72,5A4.66,4.66,0,0,0,465.36,142.23Z" transform="translate(-47.49 -64.9)"/><path class="cls-6" d="M347,108.9h-8.89v11.45h-12.3V108.9H296.42v-8.49l25.71-34.58h13.24L311.54,98.62h14.64V88.41h11.91V98.62H347Z" transform="translate(-47.49 -64.9)"/><path class="cls-6" d="M350.74,93.09c0-18,10-28.19,23.37-28.19s23.36,10.2,23.36,28.19-9.89,28.19-23.36,28.19S350.74,111.08,350.74,93.09Zm34,0c0-12.38-4.36-17.52-10.67-17.52s-10.6,5.14-10.6,17.52,4.37,17.52,10.6,17.52S384.78,105.47,384.78,93.09Z" transform="translate(-47.49 -64.9)"/><path class="cls-6" d="M453.58,108.9H444.7v11.45H432.39V108.9H403v-8.49l25.7-34.58H442L418.14,98.62h14.64V88.41H444.7V98.62h8.88Z" transform="translate(-47.49 -64.9)"/></g><g id="Lines"><path class="cls-6" d="M439.18,209.4l-.18.12-.57.31L436.22,211l-8.2,4.18L400.5,229l-.18.09-.13-.17-2.4-3.4-3.41-4.84.32.07-25.65,14.82L361.41,240l-2.08,1.16-.54.29-.19.08a.59.59,0,0,1,.17-.12l.52-.33,2-1.23,7.57-4.49,25.56-14.95.19-.11.13.18,3.43,4.84,2.4,3.4-.31-.08,27.58-13.72,8.27-4.06,2.25-1.07.58-.27Z" transform="translate(-47.49 -64.9)"/><path class="cls-6" d="M431.89,245.52a2.09,2.09,0,0,1-.54.15l-1.58.35-5.86,1.19L404.3,251l-.24,0,0-.25-.44-2.42c-.09-.55-.19-1.1-.28-1.61l.28.2c-7.95,1.37-15,3-20,4.36-2.53.66-4.55,1.23-6,1.62l-1.61.45a3.46,3.46,0,0,1-.57.13,2.28,2.28,0,0,1,.54-.22l1.58-.53c1.39-.45,3.4-1.07,5.92-1.78a200.14,200.14,0,0,1,20.05-4.51l.24,0,0,.24c.09.51.19,1.06.29,1.61.15.83.29,1.65.43,2.42l-.29-.19,19.64-3.66,5.88-1,1.6-.26A3.93,3.93,0,0,1,431.89,245.52Z" transform="translate(-47.49 -64.9)"/><path class="cls-6" d="M364.85,210.82c.12.06-2.42,5.55-5.69,12.27s-6,12.13-6.13,12.07,2.43-5.56,5.69-12.28S364.73,210.76,364.85,210.82Z" transform="translate(-47.49 -64.9)"/><path class="cls-6" d="M394.71,237.77c0,.13-6.29,2.1-14.13,4.39s-14.24,4-14.27,3.91,6.28-2.1,14.13-4.39S394.67,237.64,394.71,237.77Z" transform="translate(-47.49 -64.9)"/><path class="cls-6" d="M345.77,193.6a5.23,5.23,0,0,1,.41,1c.26.73.6,1.71,1,2.91.87,2.59,2.05,6.14,3.45,10.33l.1.3h-.32l-7.81-.15.25-.29c.18,1,.38,2,.58,3.1,1.28,7.05,2.43,13.42,3.29,18.12.39,2.27.71,4.13.94,5.5.09.61.17,1.11.23,1.5a1.94,1.94,0,0,1,.05.53,1.89,1.89,0,0,1-.15-.51c-.08-.39-.19-.88-.32-1.48L346.39,229,343,210.91c-.19-1.06-.39-2.11-.57-3.1l-.06-.3h.3l7.81.2-.21.29-3.28-10.38c-.37-1.22-.67-2.21-.89-3A7.69,7.69,0,0,1,345.77,193.6Z" transform="translate(-47.49 -64.9)"/><path class="cls-6" d="M311.24,269c-.06-.12,5-2.62,11.33-5.58s11.48-5.25,11.54-5.13-5,2.62-11.33,5.58S311.3,269.08,311.24,269Z" transform="translate(-47.49 -64.9)"/><path class="cls-6" d="M334.82,276.2a50.69,50.69,0,0,1,4.32-5.57,51.72,51.72,0,0,1,4.71-5.26,49.06,49.06,0,0,1-4.33,5.57A51,51,0,0,1,334.82,276.2Z" transform="translate(-47.49 -64.9)"/><path class="cls-6" d="M347.53,310.54c-.13,0,.73-9.75,1.94-21.75s2.29-21.71,2.43-21.7-.74,9.75-1.94,21.75S347.67,310.56,347.53,310.54Z" transform="translate(-47.49 -64.9)"/><path class="cls-6" d="M330.18,224.39a22.4,22.4,0,0,1,2.31,4.09,21.93,21.93,0,0,1,1.86,4.3,22.85,22.85,0,0,1-2.3-4.08A23.08,23.08,0,0,1,330.18,224.39Z" transform="translate(-47.49 -64.9)"/></g></svg>